<svg width="34" height="27" viewBox="0 0 34 27" fill="none" xmlns="http://www.w3.org/2000/svg">
<path d="M24.0143 26.34C19.7743 26.34 16.3743 26.21 13.8143 25.95C11.2743 25.69 9.08434 25.13 7.24434 24.27C5.40434 23.43 3.86434 22.16 2.62434 20.46C1.28434 18.52 0.614336 15.81 0.614336 12.33C0.614336 8.27 1.61434 5.24 3.61434 3.24C5.63434 1.24 8.45434 0.239998 12.0743 0.239998C15.6743 0.239998 18.4843 1.13 20.5043 2.91C22.5243 4.67 23.5343 7.31 23.5343 10.83C23.5343 12.35 23.2843 13.78 22.7843 15.12C22.3043 16.44 21.4643 17.66 20.2643 18.78L20.4143 19.08H24.0143V26.34ZM12.0743 19.08C13.4343 19.08 14.1143 18.34 14.1143 16.86V7.8C14.1143 6.32 13.4343 5.58 12.0743 5.58C10.7143 5.58 10.0343 6.32 10.0343 7.8V16.86C10.0343 18.34 10.7143 19.08 12.0743 19.08ZM28.6814 24V19.08H33.3614V24H28.6814Z" fill="#005DA2"/>
</svg>
