<svg width="28" height="30" viewBox="0 0 28 30" fill="none" xmlns="http://www.w3.org/2000/svg">
<g clip-path="url(#clip0_28_5940)">
<path d="M23.5534 16.099C23.574 16.0805 23.6002 16.0694 23.6301 16.0602C23.6264 16.0639 23.6245 16.0676 23.6226 16.0694C23.5347 16.136 23.4113 16.221 23.5553 16.099H23.5534Z" fill="#505050"/>
<path d="M18.2632 17.2413C18.1529 17.1895 18.0556 17.0546 17.9396 17.038C17.9845 17.0435 18.0275 17.0564 18.0706 17.0694C18.1342 17.1359 18.1959 17.2062 18.2632 17.2395V17.2413Z" fill="#505050"/>
<path d="M18.2632 17.2413C18.2838 17.2506 18.3025 17.258 18.325 17.2617C18.3044 17.258 18.2838 17.2506 18.2632 17.2413Z" fill="#505050"/>
<path d="M23.6376 16.049C23.7237 15.9899 23.6938 16.0157 23.6376 16.0564C23.6339 16.0564 23.632 16.0583 23.6283 16.0601C23.632 16.0564 23.6339 16.0509 23.6376 16.049Z" fill="#505050"/>
<path d="M24.2437 15.4593C24.2437 15.4593 24.2494 15.4538 24.2512 15.4501C24.2437 15.4593 24.2363 15.4704 24.2306 15.4796C24.2344 15.4723 24.2381 15.4649 24.2437 15.4593Z" fill="#505050"/>
<path d="M14.0524 13.3872C14.0674 13.4038 14.0786 13.4186 14.0861 13.4279C14.0842 13.4279 14.0804 13.426 14.0786 13.4242C14.0674 13.4149 14.058 13.402 14.0524 13.3872Z" fill="#505050"/>
<path d="M9.14191 11.8677C9.08766 11.8751 9.03341 11.8843 8.97916 11.8935C8.91369 11.8658 8.84821 11.8381 8.78461 11.8307C8.90246 11.8362 9.02593 11.8824 9.14191 11.8677Z" fill="#505050"/>
<path d="M24.1596 15.5759C24.1839 15.5426 24.2063 15.5112 24.2307 15.4797C24.2194 15.4964 24.2101 15.513 24.2007 15.5333C24.1427 15.6091 24.0866 15.6794 24.1596 15.5759Z" fill="#505050"/>
<path d="M15.6368 15.5149C15.6256 15.489 15.6107 15.4649 15.5957 15.4409C15.6238 15.3392 15.6817 15.2246 15.6855 15.1322C15.6817 15.2542 15.5957 15.415 15.6368 15.5149Z" fill="#505050"/>
<path d="M15.8426 16.0343C15.8613 16.1692 15.8295 16.3134 15.8482 16.4484C15.8426 16.404 15.8314 16.3633 15.822 16.3208C15.8407 16.2266 15.8557 16.1304 15.8426 16.0343Z" fill="#505050"/>
<path d="M15.6855 15.1137C15.6855 15.0952 15.6817 15.0767 15.6743 15.0601C15.6817 15.0767 15.6836 15.0952 15.6855 15.1137Z" fill="#505050"/>
<path d="M7.57617 26.009C7.57617 26.009 7.57056 26.0164 7.56869 26.0183C7.56495 26.0201 7.56121 26.022 7.55747 26.0238C7.56495 26.0164 7.56869 26.0127 7.5743 26.0072L7.57617 26.009Z" fill="#505050"/>
<path d="M4.26508 26.6948C4.22205 26.7059 4.1809 26.7189 4.13787 26.7318C4.1042 26.7281 4.0724 26.7262 4.03873 26.7226C4.11168 26.7318 4.18838 26.7133 4.26508 26.6967V26.6948Z" fill="#505050"/>
<path d="M12.3838 21.2823C12.4287 21.2638 12.4642 21.225 12.4979 21.1807C12.5877 21.1807 12.6756 21.1751 12.7542 21.1418C12.6307 21.1936 12.5072 21.2306 12.3838 21.2823Z" fill="#505050"/>
<path d="M4.4671 26.6726C4.4035 26.6634 4.33429 26.6782 4.26507 26.6948C4.33429 26.6763 4.40163 26.6634 4.4671 26.6726Z" fill="#505050"/>
<path d="M8.70044 23.471C8.67051 23.4044 8.60129 23.3656 8.53021 23.3287C8.53021 23.2603 8.53021 23.1937 8.50402 23.1309C8.5564 23.2529 8.64993 23.349 8.70044 23.471Z" fill="#505050"/>
<path d="M7.63603 25.9406C7.66222 25.9221 7.69028 25.9 7.7146 25.8815C7.68654 25.9073 7.64164 25.9499 7.57617 26.009C7.59301 25.9831 7.61171 25.9573 7.63603 25.9406Z" fill="#505050"/>
<path d="M7.71273 25.8814C7.78007 25.8204 7.75949 25.8426 7.71273 25.8814V25.8814Z" fill="#505050"/>
<path d="M6.71192 26.5081C6.7512 26.4915 6.78862 26.4711 6.82416 26.4508C6.92143 26.4508 7.01871 26.4489 7.10663 26.4138C6.98317 26.4656 6.83538 26.4563 6.71379 26.5081H6.71192Z" fill="#505050"/>
<path d="M10.861 21.5854C10.891 21.5854 10.9228 21.5854 10.9527 21.5817C10.9041 21.5872 10.8535 21.578 10.8012 21.565C10.7263 21.5373 10.6515 21.5133 10.5786 21.5096C10.5599 21.5096 10.5411 21.5096 10.5224 21.5096C10.5411 21.5077 10.5599 21.5096 10.5786 21.5096C10.6515 21.5151 10.7263 21.5447 10.8012 21.565C10.8199 21.5724 10.8405 21.578 10.8592 21.5854C10.7132 21.5854 10.5636 21.5503 10.4177 21.5613C10.2418 21.5743 10.0679 21.5687 9.89203 21.5724C9.71431 21.5761 9.5366 21.7573 9.36076 21.7517C9.18492 21.7462 9.01095 21.6445 8.83324 21.6297C8.71351 21.6205 8.59753 21.5724 8.47968 21.5355C8.56386 21.5355 8.64804 21.5336 8.73035 21.5447C8.59379 21.5262 8.45349 21.5151 8.31693 21.4966C8.37305 21.504 8.4273 21.5188 8.48155 21.5355C8.39363 21.5355 8.30571 21.5355 8.21966 21.5207C8.05317 21.4893 7.88107 21.4856 7.71645 21.4467C7.55183 21.4079 7.41528 21.2693 7.25253 21.2212C7.08978 21.1732 6.85782 21.3321 6.69881 21.2767C6.53981 21.2212 6.40886 21.0807 6.25173 21.016C6.37519 21.0678 6.50614 21.0955 6.62773 21.1473C6.46124 21.077 6.32655 20.9421 6.16568 20.8626C6.0048 20.7831 5.86824 20.6666 5.71111 20.5779C5.55584 20.4892 5.41554 20.3857 5.26589 20.2858C5.16113 20.2156 5.02084 20.1398 4.91047 20.0788C4.97781 20.1306 5.03019 20.2452 5.09753 20.2969C5.06012 20.2692 4.93479 20.3487 4.89924 20.3191C4.85435 20.2822 4.84686 20.199 4.80384 20.162C4.60368 19.9919 4.46338 19.7812 4.28567 19.5908C4.26509 19.7498 4.31373 19.8884 4.29128 20.0474C4.2707 20.2064 4.14537 20.3524 4.12292 20.5132C4.10234 20.6722 4.18465 20.846 4.16407 21.0049C4.1435 21.1639 4.01442 21.3099 3.99197 21.4708C3.9714 21.6297 4.04248 21.7813 4.02191 21.9421C4.08364 21.9126 4.11918 21.9421 4.18278 21.9163C4.05932 21.968 3.91341 21.9588 3.78994 22.0087C3.9265 21.9532 4.10608 22.0309 4.24638 21.9884C4.38668 21.9458 4.47834 21.7185 4.62239 21.6889C4.68225 21.676 4.74959 21.6926 4.81693 21.7166C4.76643 21.7407 4.71592 21.7591 4.66541 21.7665C4.80197 21.748 4.95162 21.7961 5.08818 21.7776C5.004 21.7887 4.9086 21.748 4.81693 21.7185C4.93666 21.6612 5.05638 21.578 5.17797 21.5724C5.35194 21.5669 5.52591 21.7813 5.69988 21.7906C5.87386 21.7998 6.06279 21.6316 6.23489 21.6538C6.09833 21.6353 5.96926 21.6113 5.8327 21.5928C6.00293 21.6168 6.18251 21.6334 6.349 21.6704C6.51736 21.7074 6.68759 21.7721 6.85221 21.822C7.01683 21.8719 7.16274 21.9865 7.32361 22.0512C7.20015 21.9994 7.07669 21.9588 6.95322 21.9089C7.19454 22.0105 7.43211 22.1307 7.65659 22.2638C7.73142 22.3082 7.77631 22.3932 7.83243 22.4653C7.82121 22.4616 7.80999 22.4616 7.8025 22.4542C8.14483 22.7684 8.01576 22.6187 7.90726 22.5429C7.87733 22.5226 7.85301 22.4949 7.83056 22.4653C7.88855 22.4819 7.9877 22.4579 8.02885 22.493C8.11677 22.5706 8.24585 22.6187 8.32629 22.7037C8.36183 22.7426 8.40672 22.7795 8.44227 22.8202C8.61998 23.0235 8.24024 22.8997 8.19721 22.8202C8.26081 22.9422 8.287 23.0938 8.35996 23.2084C8.39363 23.262 8.4591 23.2971 8.52271 23.3322C8.52083 23.4228 8.51148 23.5134 8.5358 23.5966C8.57695 23.7445 8.65365 23.8757 8.6761 24.0291C8.65739 23.8942 8.62185 23.7482 8.60314 23.6132C8.62372 23.7759 8.72474 23.9312 8.72474 24.0938C8.72474 24.2565 8.85755 24.434 8.83698 24.5967C8.85568 24.4617 8.71538 24.3064 8.73409 24.1696C8.70977 24.3342 8.64617 24.4876 8.60127 24.6466C8.59566 24.6687 8.59192 24.6909 8.59005 24.715C8.44227 24.7205 8.28887 24.7593 8.14296 24.739C7.96899 24.7168 7.80811 24.5874 7.63414 24.5578C7.46017 24.5283 7.26937 24.5763 7.09727 24.5375C6.92517 24.5005 6.79796 24.2806 6.62773 24.2343C6.4575 24.1881 6.29475 24.1327 6.12826 24.0791C5.95991 24.0255 5.76723 24.0532 5.60261 23.9922C5.43799 23.9312 5.23222 23.9626 5.07134 23.8924C4.91047 23.8221 4.74585 23.7445 4.58871 23.6668C4.43158 23.5892 4.34927 23.3674 4.19588 23.2823C4.04248 23.1955 3.93024 23.055 3.78246 22.9588C3.63468 22.8646 3.42329 22.8664 3.28112 22.7647C3.13895 22.6612 3.09406 22.4449 2.9575 22.3322C2.82281 22.2213 2.53847 22.2767 2.41127 22.1566C2.28406 22.0364 2.23543 21.8368 2.11571 21.7092C2.00534 21.5891 1.84633 21.504 1.77524 21.3709C1.70229 21.2323 1.69855 21.0585 1.67236 20.9051C1.64804 20.7572 1.59379 20.5927 1.61624 20.4319C1.63682 20.2858 1.66113 20.1084 1.72287 19.9624C1.7846 19.82 1.90993 19.6906 2.01282 19.576C2.1157 19.4596 2.22981 19.3006 2.37198 19.234C2.52912 19.1619 2.78166 19.3172 2.94254 19.2562C3.10341 19.1952 3.24932 19.1139 3.41394 19.064C3.57856 19.0141 3.70202 18.807 3.87038 18.77C4.03874 18.7331 4.2389 18.8736 4.411 18.8477C4.58123 18.8218 4.74585 18.8033 4.91795 18.7904C5.09005 18.7774 5.2528 18.5112 5.4249 18.5094C5.597 18.5094 5.77658 18.5907 5.94868 18.6018C6.12078 18.6129 6.28914 18.685 6.46124 18.709C6.63147 18.7331 6.82789 18.6462 6.99812 18.6813C7.16648 18.7164 7.29181 18.9364 7.4583 18.9845C7.62292 19.0325 7.80811 19.0214 7.96899 19.0824C8.13361 19.1453 8.34686 19.1083 8.50587 19.1804C8.66675 19.2525 8.73409 19.5132 8.88935 19.5963C9.04462 19.6795 9.30838 19.5908 9.45429 19.6851C9.60208 19.7812 9.63762 20.0381 9.77605 20.1454C9.91635 20.2526 10.1146 20.2914 10.2418 20.4097C10.3709 20.528 10.4046 20.7369 10.5224 20.8681C10.6384 20.9994 10.7282 21.1399 10.8311 21.2822C10.9209 21.4061 11.0574 21.4948 11.1491 21.6168C11.136 21.6205 11.1248 21.626 11.1117 21.6279C11.0313 21.6445 10.9452 21.6186 10.8573 21.5891L10.861 21.5854Z" fill="#505050"/>
<path d="M23.6302 16.0601C23.6302 16.0601 23.6358 16.0582 23.6395 16.0564C23.6339 16.0601 23.6283 16.0656 23.6227 16.0693C23.6246 16.0656 23.6283 16.0619 23.6302 16.0601Z" fill="#505050"/>
<path d="M22.5638 16.709C22.5377 16.7164 22.5115 16.7238 22.4871 16.733C22.5115 16.7219 22.5377 16.7145 22.5638 16.709Z" fill="#505050"/>
<path d="M10.8011 21.5651C10.7263 21.5448 10.6515 21.5152 10.5785 21.5096C10.6496 21.5133 10.7245 21.5392 10.8011 21.5651Z" fill="#505050"/>
<path d="M8.24214 25.5247C8.18976 25.5395 8.11306 25.5358 8.07752 25.5598C8.12241 25.5284 8.38431 25.3528 8.24214 25.5247Z" fill="#505050"/>
<path d="M21.3311 17.1009C21.2787 17.1083 21.2264 17.1267 21.1759 17.1489C21.0823 17.1083 20.9888 17.0676 20.9065 17.0787C21.043 17.0602 21.1946 17.1175 21.3311 17.099V17.1009Z" fill="#505050"/>
<path d="M22.88 16.6295C22.8501 16.6425 22.8239 16.6591 22.7977 16.6776C22.7191 16.685 22.6387 16.6905 22.5639 16.7072C22.6686 16.6794 22.7827 16.6702 22.88 16.6295Z" fill="#505050"/>
<path d="M8.02514 12.3094C8.02514 12.3094 8.02514 12.3075 8.02514 12.3057C8.05694 12.2854 8.08874 12.2613 8.12054 12.2373C8.11306 12.2484 8.10745 12.2595 8.10184 12.2706C8.07939 12.2817 8.0532 12.2946 8.02514 12.3094Z" fill="#505050"/>
<path d="M7.93536 12.3076C7.88672 12.2392 7.82873 12.1708 7.83995 12.0931C7.8306 12.1782 7.91665 12.254 7.99335 12.3298C7.98961 12.3353 7.98586 12.339 7.98212 12.3445C7.96716 12.3316 7.95032 12.3187 7.93536 12.3076Z" fill="#505050"/>
<path d="M14.9054 19.1934C14.9839 19.101 14.9166 19.3136 14.896 19.4134C14.8549 19.4097 14.8156 19.4078 14.7744 19.4041C14.7894 19.3857 14.8062 19.369 14.8231 19.3505C14.8605 19.3062 14.868 19.2359 14.9054 19.1916V19.1934Z" fill="#505050"/>
<path d="M24.2007 15.5333C24.2082 15.5148 24.2194 15.4963 24.2306 15.4797C24.2381 15.4704 24.2456 15.4594 24.2512 15.4501C24.3185 15.3725 24.2587 15.4557 24.2007 15.5333Z" fill="#505050"/>
<path d="M18.0706 17.0694C18.0051 16.9992 17.9378 16.9345 17.8611 16.9216C17.6927 16.8938 17.515 16.9327 17.3485 16.9012C17.182 16.8698 16.9744 17.0232 16.8079 16.9881C16.6414 16.953 16.5292 16.6831 16.3627 16.6443C16.1962 16.6055 15.9941 16.7164 15.8277 16.6739C15.8071 16.6683 15.7865 16.6572 15.7659 16.648C15.7715 16.5389 15.7977 16.4299 15.8202 16.3208C15.8295 16.3633 15.8408 16.4058 15.8464 16.4483C15.8277 16.3134 15.8595 16.1692 15.8408 16.0343C15.852 16.1304 15.8389 16.2247 15.8202 16.3208C15.7977 16.2154 15.7697 16.1119 15.7453 16.0065C15.7098 15.8568 15.635 15.7293 15.5863 15.5832C15.5732 15.5426 15.5789 15.4926 15.5938 15.4427C15.6088 15.4668 15.6238 15.4908 15.635 15.5167C15.592 15.4169 15.6799 15.256 15.6836 15.134C15.6836 15.1285 15.6836 15.1211 15.6836 15.1155C15.6836 15.0971 15.6799 15.0786 15.6724 15.0619C15.6799 15.0786 15.6817 15.0971 15.6836 15.1155C15.6836 15.1211 15.6836 15.1285 15.6836 15.134C15.6799 15.2283 15.6219 15.3411 15.5938 15.4427C15.5302 15.3429 15.4386 15.2542 15.3824 15.1507C15.3132 15.0213 15.3469 14.842 15.2683 14.7181C15.1898 14.5943 15.1262 14.463 15.0401 14.3447C14.9746 14.256 14.8138 14.1118 15.1187 14.4741C15.0887 14.439 15.0382 14.4205 15.0102 14.3835C14.9354 14.2948 14.8605 14.2079 14.782 14.1229C14.6379 13.9657 14.5912 13.7106 14.434 13.5665C14.348 13.487 14.1796 13.4962 14.0861 13.426C14.0786 13.4149 14.0655 13.4019 14.0524 13.3853C14.0356 13.3539 14.0243 13.3151 13.9982 13.2929C13.8616 13.182 13.9813 13.304 14.0524 13.3853C14.0599 13.4001 14.0674 13.413 14.0786 13.4223C14.0805 13.4223 14.0842 13.4241 14.0861 13.426C14.101 13.4463 14.101 13.4519 14.0674 13.426C13.8784 13.2892 13.7119 13.121 13.5137 12.9971C13.379 12.9121 13.3004 12.7254 13.162 12.6477C13.0217 12.5719 12.8346 12.5756 12.6924 12.5054C12.5484 12.437 12.3969 12.3815 12.251 12.3205C12.3744 12.3723 12.4455 12.5461 12.569 12.5978C12.4212 12.5368 12.3033 12.4019 12.1518 12.3483C12.0003 12.2947 11.8675 12.1819 11.7141 12.1357C11.5607 12.0895 11.426 11.9564 11.2689 11.9176C11.1136 11.8806 10.934 11.9176 10.7769 11.8861C10.6197 11.8566 10.4664 11.7734 10.3073 11.753C10.4439 11.7715 10.5674 11.8584 10.7039 11.8769C10.5412 11.8566 10.3635 12.0007 10.1988 11.9897C10.0342 11.9767 9.8771 11.9712 9.71248 11.9693C9.54786 11.9675 9.39073 11.9471 9.22611 11.9564C9.14567 11.9601 9.06336 11.925 8.97918 11.8898C9.03343 11.8806 9.08768 11.8713 9.14193 11.864C9.02595 11.8787 8.90248 11.8325 8.78463 11.827C8.76218 11.8251 8.74161 11.8233 8.71916 11.827C8.73974 11.8233 8.76218 11.827 8.78463 11.827C8.84823 11.8344 8.91371 11.8621 8.97918 11.8898C8.85759 11.9102 8.73412 11.9305 8.6144 11.9619C8.4423 12.0063 8.23092 11.9434 8.06443 12.01C8.18789 11.9582 8.25711 12.0691 8.38057 12.0192C8.25898 12.071 8.2702 12.1394 8.15609 12.2078C8.143 12.2152 8.13177 12.2263 8.11868 12.2355C8.19537 12.1117 8.09436 12.2115 8.02515 12.2891C8.02889 12.2521 8.0345 12.2152 8.05133 12.1764C8.03076 12.2281 8.0214 12.2651 8.01579 12.3002C8.00644 12.3113 7.99896 12.3205 7.99147 12.3279C7.91478 12.2521 7.82873 12.1764 7.83808 12.0913C7.82686 12.169 7.88485 12.2355 7.93348 12.3058C7.86427 12.2503 7.79692 12.1948 7.78944 12.132C7.8175 12.3058 7.87923 12.4758 7.94471 12.6385C7.89233 12.5165 7.92039 12.3778 7.86801 12.2558C7.90355 12.339 7.94845 12.4185 7.99521 12.4962C7.99334 12.5035 7.99334 12.5091 7.9896 12.5165C7.99147 12.5109 7.99334 12.5054 7.99708 12.4999C8.07752 12.6293 8.16731 12.755 8.25523 12.877C8.23653 12.938 8.21782 12.9971 8.2384 13.0211C8.32632 13.121 8.59195 13.0544 8.68736 13.1468C8.82018 13.2781 8.9268 13.4334 9.0484 13.572C9.06149 13.5979 9.10639 13.6441 9.19992 13.7236C9.14567 13.6774 9.09703 13.6256 9.0484 13.572C9.00911 13.4962 9.26165 13.6219 9.34583 13.6792C9.4562 13.755 9.44497 14.012 9.55908 14.0822C9.705 14.1709 9.84529 14.2782 9.99308 14.3632C10.1427 14.4482 10.3485 14.4371 10.4982 14.5203C10.6497 14.6016 10.818 14.6497 10.9714 14.7273C11.1248 14.8068 11.2745 14.8882 11.4279 14.964C11.5813 15.0397 11.7347 15.1155 11.8918 15.1895C12.0471 15.2616 12.2042 15.33 12.3613 15.4002C12.4137 15.4242 12.4623 15.4575 12.5091 15.4945C12.4923 15.4852 12.4754 15.4742 12.4586 15.4668C12.4792 15.476 12.4979 15.4871 12.5166 15.5C12.6064 15.5703 12.6924 15.6516 12.7953 15.6941C12.6924 15.6516 12.612 15.5592 12.5166 15.5C12.5147 15.5 12.5129 15.4963 12.5091 15.4945C12.6419 15.5666 12.7579 15.6849 12.8982 15.7403C13.0572 15.8032 13.1956 15.916 13.3565 15.977C13.5155 16.0361 13.7269 15.9622 13.8878 16.0176C14.0487 16.0749 14.2413 16.0343 14.4022 16.0879C14.5631 16.1415 14.6828 16.3208 14.8456 16.3707C15.0083 16.4206 15.1972 16.3855 15.36 16.4317C15.5022 16.4724 15.6238 16.587 15.7622 16.6461C15.7622 16.6572 15.7622 16.6683 15.7622 16.6794C15.7622 16.8957 15.9025 17.1138 15.8763 17.3301C15.895 17.1952 16.0035 17.0731 16.0222 16.9382C15.9998 17.1064 15.9137 17.2691 15.8763 17.4318C15.8389 17.5963 15.6743 17.7257 15.6219 17.8847C15.5714 18.0455 15.461 18.1804 15.3974 18.3375C15.4498 18.2155 15.7117 18.1767 15.7622 18.0547C15.6799 18.247 15.4704 18.3838 15.3693 18.5668C15.2683 18.7498 15.2122 18.9605 15.0944 19.1343C15.0345 19.223 14.9933 19.3284 14.9316 19.4171C14.9185 19.4171 14.9073 19.4134 14.8942 19.4134C14.9129 19.3136 14.9821 19.101 14.9036 19.1934C14.8661 19.2378 14.8587 19.308 14.8212 19.3524C14.8063 19.3709 14.7894 19.3875 14.7726 19.406C14.6828 19.4005 14.593 19.3949 14.507 19.3709C14.333 19.321 14.1141 19.4171 13.942 19.3635C13.7662 19.3099 13.5847 19.2655 13.4089 19.2082C13.2349 19.1509 13.0871 19.0086 12.9132 18.9476C12.7392 18.8866 12.5503 18.8644 12.3782 18.7997C12.2061 18.735 12.077 18.5575 11.9068 18.491C11.7347 18.4226 11.5925 18.2895 11.4241 18.2192C11.2539 18.1472 11.0032 18.2581 10.8349 18.1841C10.6665 18.1102 10.5038 18.0196 10.3373 17.942C10.1708 17.8643 10.0099 17.7682 9.84529 17.6869C9.68068 17.6055 9.54225 17.4706 9.3795 17.3856C9.21862 17.3024 9.05214 17.2303 8.895 17.1452C8.736 17.0584 8.55454 17.0103 8.39928 16.9179C8.24401 16.8254 8.13925 16.6517 7.98773 16.5556C7.83621 16.4576 7.71649 16.3189 7.5687 16.2154C7.42092 16.1119 7.31242 15.9659 7.17213 15.8531C7.03183 15.7403 6.89901 15.6294 6.76619 15.5093C6.63337 15.3891 6.49495 15.2838 6.36961 15.1544C6.24428 15.025 6.08153 14.9381 5.96742 14.7994C5.85331 14.6626 5.77848 14.5 5.67373 14.3521C5.58394 14.2245 5.48479 14.1062 5.4081 13.9639C5.3314 13.8253 5.12375 13.7439 5.06389 13.5942C5.00403 13.4463 4.96288 13.2818 4.92172 13.1284C4.88057 12.9731 4.92921 12.7975 4.9105 12.6403C4.89179 12.4814 4.80387 12.3187 4.81323 12.1597C4.82258 11.9878 4.85064 11.8122 4.88618 11.6532C4.92172 11.4869 5.12375 11.3741 5.18361 11.2207C5.24535 11.0654 5.23038 10.8768 5.31643 10.7345C5.40248 10.5922 5.5671 10.5071 5.6756 10.3777C5.78223 10.2502 5.87576 10.1208 6.00109 10.0043C6.12269 9.89156 6.25737 9.80098 6.3958 9.70116C6.5361 9.59949 6.67453 9.51815 6.82418 9.44051C6.97758 9.36287 7.09917 9.22423 7.26005 9.16693C7.42092 9.10962 7.55935 8.9488 7.72584 8.90813C7.89233 8.86747 8.09249 8.95435 8.26085 8.92662C8.43108 8.89704 8.60505 8.90813 8.77341 8.88595C8.96983 8.86192 9.15876 8.73992 9.35331 8.73437C9.54973 8.72882 9.74428 8.88595 9.93883 8.89519C10.1334 8.90444 10.3466 8.71404 10.5412 8.73437C10.7357 8.7547 10.9172 8.89704 11.1117 8.92292C11.2876 8.94695 11.4578 9.00795 11.6355 9.04123C11.8095 9.0745 12.0115 9.00426 12.1855 9.04677C12.3576 9.08929 12.5316 9.15214 12.7018 9.2039C12.872 9.25566 13.046 9.31112 13.2143 9.37212C13.3827 9.43312 13.5436 9.51815 13.7082 9.5884C13.8728 9.65679 14.0449 9.71964 14.2058 9.79728C14.3667 9.87492 14.5163 9.98029 14.6716 10.0653C14.8269 10.1522 14.9765 10.2557 15.128 10.3481C15.2796 10.4424 15.3993 10.5829 15.5452 10.6846C15.6911 10.7863 15.7884 10.9489 15.9268 11.058C16.0671 11.1689 16.2729 11.1966 16.4057 11.3149C16.5385 11.4332 16.6264 11.5959 16.7536 11.7216C16.879 11.8473 17.0904 11.8972 17.2082 12.0285C17.3261 12.1616 17.4439 12.3002 17.5524 12.4407C17.6609 12.5812 17.5898 12.8474 17.689 12.9934C17.7881 13.1394 18.0612 13.1783 18.1491 13.3317C18.2333 13.4759 18.1735 13.6977 18.2464 13.8493C18.3194 14.0009 18.5887 14.0693 18.6505 14.2245C18.7122 14.3798 18.6149 14.5961 18.6654 14.7569C18.716 14.9177 18.6879 15.0934 18.7253 15.256C18.7646 15.4187 18.8301 15.5703 18.8563 15.7366C18.8824 15.903 18.9872 16.0583 18.9984 16.2247C19.0096 16.391 19.0789 16.5629 19.077 16.7293C19.0751 16.8975 19.0396 17.0694 19.0209 17.2358C19.019 17.2562 19.0209 17.2746 19.019 17.295C18.8432 17.2783 18.6673 17.2192 18.4915 17.2007C18.3474 17.1859 18.209 17.112 18.0687 17.0658L18.0706 17.0694Z" fill="#505050"/>
<path d="M7.99331 12.3538C7.99331 12.3538 7.98583 12.3483 7.98396 12.3465C7.9877 12.3428 7.98957 12.3372 7.99518 12.3317L8.00641 12.3428C8.00641 12.3428 7.99706 12.3502 7.99331 12.3538Z" fill="#505050"/>
<path d="M8.00831 12.3187C8.00831 12.3187 8.01205 12.3169 8.01579 12.315C8.01579 12.3224 8.01392 12.3298 8.01205 12.3391C8.01018 12.3391 8.00831 12.3428 8.00644 12.3446L7.99521 12.3335C7.99521 12.3335 8.01018 12.315 8.01953 12.3058C8.01953 12.3095 8.01953 12.3132 8.01766 12.3169C8.01579 12.3169 8.01392 12.3206 8.01018 12.3224L8.00831 12.3187Z" fill="#505050"/>
<path d="M8.01575 12.315C8.01575 12.315 8.01575 12.3076 8.01762 12.3039C8.02136 12.3002 8.02324 12.2965 8.02698 12.2928C8.02698 12.2984 8.02698 12.3021 8.02698 12.3076C8.02324 12.3095 8.01949 12.3132 8.01575 12.315Z" fill="#505050"/>
<path d="M8.027 12.2928C8.09621 12.2133 8.19723 12.1153 8.12053 12.2391C8.08873 12.2632 8.0588 12.2872 8.02513 12.3075C8.02513 12.302 8.02513 12.2983 8.02513 12.2928H8.027Z" fill="#505050"/>
<path d="M11.729 24.3804C11.5644 24.4137 11.4278 24.5912 11.2595 24.617C11.093 24.6411 10.934 24.7557 10.7656 24.7723C10.5991 24.789 10.4233 24.789 10.2549 24.7982C10.0866 24.8074 9.91448 24.8259 9.74425 24.8259C9.56841 24.8259 9.3907 24.7686 9.21298 24.7612C9.03714 24.7538 8.8613 24.7243 8.68546 24.7095C8.65553 24.7076 8.6256 24.7095 8.59567 24.7095C8.59754 24.6854 8.60128 24.6633 8.60689 24.6411C8.65179 24.4821 8.71539 24.3287 8.73971 24.1642C8.721 24.2991 8.8613 24.4544 8.84259 24.5912C8.86504 24.4285 8.73035 24.251 8.73035 24.0884C8.73035 23.9257 8.62934 23.7723 8.60876 23.6077C8.62747 23.7427 8.66301 23.8887 8.68172 24.0237C8.65927 23.8702 8.5807 23.739 8.54142 23.5911C8.51897 23.5079 8.52645 23.4155 8.52832 23.3268C8.59941 23.3656 8.67049 23.4044 8.69855 23.4691C8.64617 23.3471 8.55264 23.251 8.50213 23.129C8.52832 23.19 8.53019 23.2584 8.52832 23.3268C8.46472 23.2916 8.39925 23.2584 8.36558 23.2029C8.29262 23.0883 8.26643 22.9367 8.20283 22.8147C8.24398 22.8942 8.6256 23.0181 8.44789 22.8147C8.41234 22.7759 8.36932 22.7371 8.3319 22.6983C8.25147 22.6132 8.12239 22.5652 8.03447 22.4875C7.99331 22.4506 7.89417 22.4764 7.83618 22.4598C7.78006 22.3877 7.73516 22.3027 7.66034 22.2583C7.43586 22.1252 7.19829 22.0032 6.95697 21.9034C7.08044 21.9551 7.2039 21.9958 7.32736 22.0457C7.16835 21.981 7.02057 21.8683 6.85596 21.8165C6.69134 21.7647 6.52111 21.7019 6.35275 21.6649C6.18439 21.6279 6.00668 21.6113 5.83645 21.5873C5.973 21.6058 6.10208 21.6298 6.23864 21.6483C6.06654 21.6261 5.87573 21.7943 5.70363 21.7851C5.52966 21.7758 5.35569 21.5614 5.18172 21.5669C5.06012 21.5706 4.9404 21.6557 4.82068 21.713C4.75334 21.6908 4.68599 21.6723 4.62613 21.6853C4.48209 21.7167 4.3923 21.9422 4.25013 21.9847C4.10983 22.0272 3.93212 21.9496 3.79369 22.0051C3.91715 21.9533 4.06306 21.9625 4.18653 21.9126C4.12292 21.9404 4.08925 21.9108 4.02565 21.9385C4.04623 21.7795 3.97327 21.6279 3.99572 21.4671C4.0163 21.3082 4.14537 21.1621 4.16782 21.0013C4.1884 20.8423 4.10609 20.6686 4.12667 20.5096C4.14724 20.3506 4.27445 20.2027 4.29503 20.0437C4.3156 19.8848 4.26697 19.7461 4.28941 19.5872C4.46713 19.7794 4.6093 19.9901 4.80759 20.1584C4.85061 20.1953 4.85809 20.2804 4.90299 20.3155C4.93853 20.3451 5.06387 20.2656 5.10128 20.2933C5.03393 20.2415 4.98156 20.1269 4.91421 20.0752C5.02458 20.1362 5.16488 20.212 5.26964 20.2822C5.41929 20.382 5.55772 20.4856 5.71486 20.5743C5.87012 20.663 6.00668 20.7813 6.16943 20.859C6.33217 20.9366 6.46499 21.0734 6.63148 21.1436C6.50801 21.0919 6.37894 21.0641 6.25548 21.0124C6.41261 21.0771 6.54356 21.2176 6.70256 21.273C6.86157 21.3285 7.09353 21.1714 7.25628 21.2176C7.41902 21.2656 7.55558 21.4024 7.7202 21.4431C7.88482 21.4819 8.05692 21.4856 8.22341 21.517C8.30946 21.5337 8.39738 21.5337 8.4853 21.5318C8.60315 21.5688 8.71726 21.615 8.83885 21.6261C9.01469 21.6409 9.18867 21.7426 9.36638 21.7481C9.54222 21.7537 9.7218 21.5725 9.89765 21.5688C10.0735 21.5651 10.2475 21.5688 10.4233 21.5577C10.5692 21.5466 10.7189 21.5817 10.8648 21.5817C10.9527 21.6132 11.0406 21.6372 11.1192 21.6206C11.1323 21.6187 11.1435 21.6113 11.1566 21.6095C11.1697 21.6279 11.1847 21.6427 11.1959 21.6631C11.2819 21.8128 11.4185 21.9441 11.4896 22.1049C11.5588 22.262 11.5438 22.4561 11.5962 22.6243C11.6505 22.7925 11.6523 22.9681 11.6841 23.1382C11.7178 23.312 11.671 23.482 11.6841 23.6558C11.6991 23.8314 11.8992 23.9978 11.8936 24.1715C11.8918 24.2418 11.8936 24.3139 11.8955 24.386C11.8375 24.373 11.7814 24.3638 11.7271 24.3749L11.729 24.3804Z" fill="#505050"/>
<path d="M11.8936 24.1771C11.8993 24.0033 11.6972 23.837 11.6841 23.6614C11.671 23.4876 11.7159 23.3157 11.6841 23.1438C11.6505 22.9737 11.6486 22.7981 11.5962 22.6299C11.542 22.4616 11.5588 22.2675 11.4896 22.1104C11.4185 21.9496 11.2819 21.8184 11.1959 21.6686C11.1847 21.6501 11.1697 21.6335 11.1566 21.615C11.3268 21.5688 11.4821 21.456 11.6505 21.4117C11.8319 21.3636 11.9984 21.273 12.178 21.212C12.2753 21.1788 12.3894 21.1825 12.4997 21.1806C12.4679 21.225 12.4305 21.2619 12.3856 21.2823C12.5091 21.2305 12.6326 21.1935 12.756 21.1418C12.6774 21.1732 12.5895 21.1788 12.4997 21.1806C12.5746 21.0808 12.6307 20.944 12.7298 20.8941C12.8739 20.8238 13.0385 20.8054 13.1769 20.7259C13.3153 20.6464 13.5454 20.7111 13.6801 20.6242C13.783 20.5558 13.8896 20.4856 13.9888 20.4153C14.1553 20.2952 13.8466 20.4856 13.8242 20.4985C13.8747 20.4689 13.9289 20.4098 13.9738 20.3728C14.1422 20.236 14.2095 19.9883 14.3648 19.8386C14.5088 19.6981 14.6454 19.5576 14.7763 19.406C14.8175 19.4079 14.8586 19.4116 14.8979 19.4152C14.8886 19.4633 14.8904 19.4855 14.9241 19.4393C14.9278 19.4337 14.9316 19.4263 14.9353 19.4189C14.9746 19.4245 15.0139 19.4282 15.0513 19.4393C15.2253 19.4855 15.3581 19.6925 15.5339 19.7332C15.7098 19.7757 15.8707 19.8903 16.0465 19.9273C16.2223 19.9661 16.4001 20.0123 16.5778 20.0474C16.7555 20.0807 16.9369 20.1048 17.1165 20.1343C17.2942 20.1639 17.4906 20.09 17.6702 20.1158C17.8049 20.1343 17.934 20.2009 18.0649 20.2415C17.9527 20.3395 17.7507 20.3839 17.6721 20.5022C17.5786 20.6445 17.6141 20.8719 17.5094 21.0087C17.399 21.1529 17.3634 21.3618 17.2456 21.4986C17.1277 21.6372 16.9126 21.6945 16.7873 21.8257C16.6619 21.957 16.6002 22.1548 16.4674 22.2805C16.3346 22.4043 16.1082 22.4284 15.9698 22.5448C15.8295 22.6613 15.706 22.7944 15.5583 22.9016C15.4123 23.0088 15.229 23.0606 15.0756 23.1585C14.9222 23.2565 14.8512 23.4913 14.6903 23.5782C14.5313 23.665 14.3442 23.715 14.1796 23.7907C14.0262 23.861 13.8055 23.776 13.6502 23.8388C13.4931 23.9017 13.4014 24.1272 13.2424 24.1826C13.0834 24.2381 12.9094 24.2603 12.7485 24.3083C12.5877 24.3564 12.4249 24.41 12.2603 24.4488C12.1481 24.4766 12.019 24.4211 11.8955 24.3915C11.8936 24.3194 11.8918 24.2473 11.8936 24.1771Z" fill="#505050"/>
<path d="M0.00185585 27.1144C0.0336571 26.9628 0.321737 26.8963 0.398434 26.7503C0.475131 26.6061 0.546216 26.5155 0.667809 26.412C0.789402 26.3066 0.858618 26.1587 1.00827 26.0977C1.15792 26.0367 1.29448 25.8907 1.45536 25.874C1.61623 25.8574 1.81639 25.8056 1.97353 25.8371C2.13253 25.8685 2.32708 25.9498 2.46551 26.033C2.58149 26.1033 2.6638 26.2197 2.78352 26.2807C2.90324 26.3417 3.0529 26.412 3.17636 26.4674C3.0529 26.4157 2.84713 26.4767 2.72366 26.4249C2.90512 26.5007 3.13521 26.436 3.32227 26.4933C3.50934 26.5525 3.66273 26.7244 3.85354 26.7669C3.94146 26.7872 4.03873 26.7613 4.13601 26.7336C4.26321 26.7484 4.39042 26.7613 4.51762 26.7706C4.6785 26.7817 4.83938 26.7706 5.00025 26.7706C5.16113 26.7706 5.32388 26.826 5.48662 26.815C5.6475 26.8039 5.79528 26.6874 5.95616 26.6671C5.8196 26.6856 5.72045 26.9333 5.5839 26.9517C5.75974 26.9259 5.9281 26.8408 6.1002 26.802C6.27417 26.7632 6.39389 26.5321 6.56412 26.4804C6.64456 26.4563 6.73248 26.4563 6.8204 26.4545C6.78486 26.4748 6.74745 26.4952 6.70816 26.5118C6.83163 26.46 6.97941 26.4693 7.101 26.4175C7.01495 26.4526 6.91768 26.4545 6.81853 26.4545C6.90832 26.4009 6.9925 26.3399 7.08603 26.2918C7.21698 26.2253 7.36102 26.192 7.48636 26.1144C7.52003 26.094 7.54248 26.0589 7.56492 26.0238C7.66781 25.9461 7.93157 26.0312 8.02511 25.9424C8.12799 25.8445 8.13735 25.6485 8.23088 25.5395C8.23462 25.5339 8.23649 25.5321 8.24023 25.5284C8.26081 25.5228 8.27764 25.5154 8.287 25.5006C8.3637 25.3879 8.33002 25.2123 8.3955 25.0921C8.46097 24.972 8.52457 24.8426 8.57882 24.7169C8.52644 24.8389 8.63681 25.0403 8.58443 25.1605C8.64055 25.0274 8.58443 24.8573 8.59379 24.7113C8.62372 24.7113 8.65365 24.7076 8.68358 24.7113C8.85942 24.7261 9.03713 24.7557 9.2111 24.7631C9.38694 24.7705 9.56653 24.8278 9.74237 24.8278C9.91073 24.8278 10.0847 24.8093 10.2531 24.8C10.4214 24.7908 10.5954 24.7908 10.7637 24.7742C10.9321 24.7575 11.0911 24.6448 11.2576 24.6189C11.4241 24.5948 11.5606 24.4155 11.7271 24.3823C11.7795 24.3712 11.8375 24.3804 11.8955 24.3934C11.8992 24.5006 11.9011 24.6096 11.8861 24.7132C11.8618 24.8869 11.86 25.0755 11.8188 25.2474C11.7776 25.4175 11.6879 25.5857 11.6299 25.752C11.5719 25.9184 11.3455 26.0182 11.2726 26.1791C11.1996 26.338 11.1398 26.4988 11.0537 26.6523C10.9677 26.8057 10.9807 27.0183 10.8816 27.1643C10.7825 27.3104 10.644 27.4305 10.5337 27.5673C10.4214 27.7059 10.3616 27.9 10.2362 28.0239C10.109 28.1514 9.98555 28.2975 9.849 28.4102C9.71057 28.523 9.44306 28.4712 9.29528 28.5711C9.1475 28.6709 9.03152 28.8169 8.87625 28.902C8.72099 28.9888 8.52083 28.9814 8.35808 29.0554C8.19534 29.1293 8.1149 29.3992 7.94654 29.4602C7.77818 29.5212 7.60608 29.5952 7.43398 29.6451C7.26188 29.695 7.07107 29.7024 6.8971 29.7412C6.72313 29.78 6.51736 29.6765 6.34151 29.7061C6.1638 29.7356 5.98048 29.6857 5.80276 29.7061C5.63253 29.7264 5.48101 29.9944 5.30704 30.0018C5.13494 30.0092 4.95536 29.9408 4.78138 29.9371C4.60928 29.9334 4.44654 29.7486 4.27444 29.7356C4.10234 29.7227 3.90779 29.9168 3.73569 29.8909C3.56546 29.8669 3.38962 29.8318 3.21939 29.7967C3.05103 29.7615 2.92756 29.5397 2.76108 29.4935C2.59459 29.4473 2.41313 29.4584 2.25039 29.4029C2.08764 29.3475 1.95295 29.2273 1.79395 29.1608C1.63494 29.0942 1.40672 29.1737 1.25333 29.0979C1.09993 29.0203 0.916605 28.9777 0.768824 28.889C0.626654 28.804 0.576148 28.5859 0.473262 28.4712C0.364764 28.3492 0.306773 28.2051 0.245042 28.0609C0.181439 27.9148 0.24504 27.7614 0.231946 27.6024C0.21698 27.4453 -0.0318155 27.2752 -1.43051e-05 27.1163L0.00185585 27.1144Z" fill="#505050"/>
<path d="M24.8461 14.6756C24.7937 14.7976 24.6534 14.8752 24.6029 14.9954C24.6216 14.9491 24.631 14.9011 24.6384 14.8512C24.7226 14.7994 24.8124 14.7513 24.848 14.6737L24.8461 14.6756Z" fill="#505050"/>
<path d="M17.1146 20.1343C16.9369 20.1047 16.7536 20.0807 16.5759 20.0474C16.3982 20.0141 16.2204 19.9661 16.0446 19.9273C15.8688 19.8884 15.7079 19.7757 15.532 19.7332C15.3562 19.6907 15.2234 19.4855 15.0494 19.4393C15.012 19.43 14.9727 19.4245 14.9334 19.4189C14.9933 19.3283 15.0344 19.2248 15.0962 19.1361C15.214 18.9623 15.272 18.7516 15.3712 18.5686C15.4722 18.3856 15.6817 18.2488 15.764 18.0565C15.7116 18.1785 15.4497 18.2174 15.3992 18.3394C15.4647 18.1841 15.5732 18.0473 15.6237 17.8865C15.6761 17.7257 15.8407 17.5963 15.8781 17.4336C15.9155 17.2691 16.0016 17.1064 16.024 16.94C16.0053 17.075 15.8968 17.197 15.8781 17.3319C15.9043 17.1156 15.764 16.8975 15.764 16.6812C15.764 16.6701 15.764 16.659 15.764 16.6479C15.7846 16.6572 15.8052 16.6683 15.8257 16.6738C15.9904 16.7163 16.1943 16.6054 16.3607 16.6443C16.5272 16.6831 16.6395 16.953 16.806 16.9881C16.9724 17.0232 17.1782 16.8698 17.3466 16.9012C17.5149 16.9326 17.6926 16.8938 17.8591 16.9215C17.934 16.9345 18.0013 16.9992 18.0687 17.0694C18.0256 17.0546 17.9826 17.0435 17.9377 17.038C18.0537 17.0528 18.151 17.1877 18.2613 17.2413C18.2819 17.2506 18.3025 17.258 18.3231 17.2617C18.3025 17.258 18.2819 17.2524 18.2613 17.2413C18.194 17.2062 18.1323 17.136 18.0687 17.0713C18.209 17.1175 18.3474 17.1914 18.4914 17.2062C18.6673 17.2228 18.8431 17.282 19.0189 17.3005C19.0133 17.4521 19.0377 17.6129 19.0115 17.7608C18.9834 17.929 18.7982 18.0695 18.7589 18.234C18.7196 18.4004 18.8188 18.6056 18.7683 18.7682C18.7178 18.9309 18.4577 19.0233 18.396 19.1823C18.3343 19.3413 18.3474 19.5261 18.2744 19.6814C18.2033 19.8348 18.2015 20.0289 18.1192 20.1768C18.1061 20.2008 18.0855 20.223 18.063 20.2415C17.9302 20.2008 17.8011 20.1343 17.6683 20.1158C17.4887 20.0918 17.2942 20.1639 17.1146 20.1343Z" fill="#505050"/>
<path d="M18.1211 20.1769C18.2034 20.0271 18.2053 19.8349 18.2763 19.6815C18.3493 19.5262 18.3362 19.3413 18.3979 19.1824C18.4597 19.0234 18.7197 18.931 18.7702 18.7683C18.8207 18.6056 18.7216 18.4004 18.7608 18.2341C18.8001 18.0695 18.9853 17.929 19.0134 17.7608C19.0396 17.6129 19.0134 17.454 19.0209 17.3005C19.034 17.3005 19.0452 17.3042 19.0583 17.3061C19.2472 17.3172 19.4455 17.1508 19.6344 17.1545C19.8234 17.1582 20.0123 17.2118 20.2012 17.2063C20.3902 17.2007 20.5903 17.3283 20.7793 17.3135C20.9158 17.3024 21.0449 17.2118 21.1759 17.1527C21.2713 17.1952 21.3685 17.2358 21.4527 17.2192C21.6192 17.1859 21.7707 17.0639 21.9353 17.0214C22.1 16.9789 22.2814 16.9752 22.4423 16.9216C22.5732 16.8772 22.678 16.7589 22.7977 16.6813C22.8894 16.672 22.9773 16.6609 23.0521 16.6221C23.2167 16.5352 23.3496 16.3911 23.5048 16.2875C23.5666 16.2469 23.5722 16.1323 23.6208 16.0731C23.6264 16.0694 23.632 16.0639 23.6376 16.0602C23.7723 16.0195 23.9687 16.0454 24.0585 15.9566C24.1558 15.8605 24.1465 15.6701 24.2007 15.5352C24.2587 15.4575 24.3186 15.3762 24.2512 15.452C24.2699 15.4261 24.2905 15.4021 24.3073 15.3744C24.3878 15.2524 24.4214 15.1119 24.4907 14.9843C24.5206 14.9307 24.5767 14.8919 24.6366 14.8549C24.631 14.9048 24.6216 14.9529 24.601 14.9991C24.6534 14.8771 24.7937 14.7995 24.8442 14.6793C24.8105 14.7569 24.7189 14.805 24.6347 14.8568C24.6497 14.7477 24.6441 14.6331 24.6777 14.5277C24.7264 14.3761 24.7619 14.232 24.7974 14.0767C24.833 13.9214 24.9995 13.7957 25.0219 13.6386C25.0032 13.7735 25.108 13.9233 25.0893 14.0582C25.1136 13.877 25.0631 13.6829 25.0687 13.4999C25.0762 13.3169 24.9003 13.1376 24.8929 12.9565C24.891 12.9102 24.9022 12.8622 24.919 12.8141C24.919 12.8178 24.919 12.8215 24.919 12.8252C24.919 12.8197 24.919 12.816 24.919 12.8104C24.9695 12.6718 25.0706 12.5276 25.0519 12.3927C25.0687 12.5221 24.9134 12.6792 24.919 12.8104C24.919 12.8104 24.919 12.8123 24.919 12.8141C24.8966 12.6256 24.9733 12.4185 24.9284 12.2337C24.8835 12.0451 24.9359 11.8215 24.876 11.6385C24.8162 11.4536 24.5187 11.3538 24.442 11.1745C24.4944 11.2965 24.7189 11.3427 24.7713 11.4647C24.7133 11.3297 24.5917 11.2244 24.5243 11.095C24.4589 10.9637 24.2662 10.9046 24.1914 10.777C24.1165 10.6513 24.0716 10.5145 23.9893 10.3925C23.9276 10.3001 23.9557 10.1467 23.8883 10.0579C23.8883 10.0579 23.8808 10.0487 23.8715 10.0376C23.8733 10.0413 23.8771 10.0432 23.8808 10.0469C23.9257 10.1023 23.9463 10.1282 23.8883 10.0542C23.8864 10.0506 23.8827 10.0487 23.8808 10.0469C23.8715 10.0339 23.8602 10.021 23.849 10.0062C23.7985 9.94149 23.7181 9.83797 23.7162 9.83797C23.7162 9.83797 23.7892 9.9304 23.849 10.0062C23.8584 10.0191 23.8659 10.0284 23.8733 10.0376C23.7312 9.86755 23.5329 9.74369 23.3888 9.57363C23.2803 9.44608 23.2691 9.23165 23.1569 9.10595C23.0446 8.98025 22.9511 8.83421 22.837 8.71036C22.7229 8.58651 22.5601 8.50332 22.4442 8.38132C22.3282 8.25931 22.2515 8.09664 22.1336 7.97649C22.0139 7.85633 21.7726 7.85818 21.651 7.74172C21.5294 7.62342 21.4546 7.46074 21.3311 7.34613C21.2077 7.22968 21.1123 7.08549 20.9869 6.97273C20.8616 6.85997 20.7755 6.70284 20.6483 6.59008C20.5211 6.47917 20.3659 6.39783 20.2368 6.28692C20.1077 6.17786 19.8552 6.21298 19.7242 6.10576C19.5933 5.99855 19.5147 5.83218 19.3838 5.72496C19.1892 5.56784 19.0414 5.34601 18.8357 5.20367C18.8488 5.21292 19.1499 5.43474 18.9516 5.28686C18.9067 5.25358 18.9385 5.12049 18.8937 5.08722C18.8039 5.02067 18.6336 5.06134 18.5438 4.99664C18.411 4.90051 18.2053 4.90606 18.0724 4.81178C17.9377 4.71751 17.7993 4.63432 17.6646 4.5419C17.5281 4.44947 17.4383 4.29604 17.2999 4.20731C17.1502 4.11119 17.0267 3.97809 16.8752 3.88566C16.7237 3.79324 16.6245 3.61393 16.4712 3.5252C16.3178 3.43647 16.0746 3.50301 15.9174 3.41798C15.7622 3.33295 15.6256 3.21649 15.4666 3.137C15.3076 3.05752 15.2216 2.82645 15.0607 2.75251C15.0607 2.75251 15.0401 2.73032 14.9746 2.74511C14.8212 2.67487 14.7745 2.65638 14.6697 2.54177C14.5612 2.42162 14.3685 2.35137 14.3087 2.20164C14.2507 2.05376 14.2956 1.8726 14.2825 1.71178C14.2694 1.5528 14.1927 1.37904 14.2226 1.22376C14.2544 1.06479 14.3891 0.931691 14.4621 0.79305C14.55 0.62853 14.6809 0.475101 14.8456 0.354946C15.0102 0.232942 15.1804 0.0906041 15.3581 0.0425419C15.5695 -0.0147629 15.7846 0.00372255 15.981 0.0332992C16.1775 0.0628759 16.3926 0.0979982 16.5834 0.186728C16.7256 0.251427 16.8079 0.436282 16.9463 0.506526C17.0847 0.576771 17.1895 0.70432 17.3279 0.778262C17.4645 0.852204 17.6347 0.865144 17.7694 0.940934C17.9041 1.01857 18.1398 0.927994 18.2745 1.00933C18.4297 1.10176 18.4428 1.41786 18.5962 1.51398C18.7496 1.61011 18.9928 1.56574 19.1425 1.66371C19.294 1.76169 19.3707 1.96688 19.5203 2.0667C19.67 2.16837 19.7991 2.29222 19.9468 2.39759C20.0946 2.5011 20.3434 2.46413 20.4893 2.57135C20.6352 2.67856 20.7456 2.83014 20.8878 2.93921C21.0299 3.04827 21.26 3.05197 21.4003 3.16288C21.5406 3.2738 21.5369 3.56217 21.6772 3.67678C21.8156 3.79139 22.012 3.83945 22.1486 3.95591C22.2852 4.07237 22.4816 4.12228 22.6181 4.24058C22.7528 4.35889 22.8651 4.50492 22.9979 4.62693C23.1307 4.74708 23.2298 4.90606 23.3608 5.02991C23.4917 5.15376 23.6732 5.22586 23.8023 5.35156C23.9313 5.47726 23.9463 5.71572 24.0735 5.84327C24.2007 5.97082 24.4589 5.97267 24.5823 6.10206C24.7077 6.23146 24.8517 6.34422 24.9752 6.47547C25.1005 6.60857 25.1566 6.80821 25.2819 6.945C25.4054 7.07994 25.5102 7.23522 25.6318 7.37386C25.7534 7.5125 25.9423 7.59754 26.0601 7.73987C26.178 7.88221 26.3183 8.01161 26.4305 8.15949C26.5428 8.30738 26.4885 8.57172 26.5914 8.7233C26.6943 8.87673 26.9281 8.94882 27.0217 9.1078C27.1152 9.26677 27.0647 9.50154 27.1451 9.66606C27.2181 9.81394 27.4014 9.91191 27.4669 10.0635C27.5323 10.2151 27.6334 10.3574 27.6914 10.5108C27.7493 10.6643 27.7886 10.8306 27.8373 10.9896C27.8859 11.1467 27.8447 11.3316 27.8822 11.4924C27.9214 11.6532 27.9177 11.8196 27.9458 11.9823C27.9738 12.145 27.9738 12.3076 27.9925 12.4721C28.0112 12.6367 27.9832 12.7975 27.9907 12.962C27.9963 13.1265 28.0019 13.2837 27.9963 13.4482C27.9907 13.6312 27.9963 13.8105 27.9776 13.9935C27.9589 14.1765 27.9009 14.3466 27.8672 14.5277C27.8354 14.7089 27.798 14.8808 27.7512 15.0583C27.7044 15.2376 27.8504 15.4723 27.7905 15.6461C27.7288 15.8199 27.624 15.9844 27.5492 16.1526C27.4725 16.3208 27.3846 16.489 27.2929 16.6499C27.2012 16.8107 26.9581 16.8717 26.8514 17.0233C26.7523 17.1619 26.7242 17.3468 26.6157 17.4761C26.5072 17.6074 26.4792 17.8126 26.3632 17.9346C26.2453 18.0566 26.135 18.1971 26.0078 18.3117C25.8806 18.4245 25.5869 18.3413 25.4522 18.4448C25.3175 18.5483 25.3119 18.8256 25.1697 18.9199C25.0275 19.0141 24.8087 18.9864 24.6609 19.0714C24.5131 19.1546 24.4065 19.3154 24.2531 19.3894C24.0997 19.4633 23.95 19.5484 23.791 19.6149C23.6339 19.6796 23.4244 19.6057 23.2616 19.6611C23.1008 19.7166 23.0054 19.9791 22.8407 20.0253C22.6761 20.0715 22.4591 19.907 22.2908 19.9421C22.1243 19.9791 21.954 19.9698 21.7857 19.9976C21.6173 20.0253 21.4695 20.1695 21.2993 20.1898C21.131 20.2083 20.9514 20.09 20.7811 20.1011C20.6109 20.1122 20.4463 20.1454 20.2761 20.151C20.1058 20.1565 19.9356 20.4024 19.7654 20.4005C19.5951 20.3987 19.4249 20.2656 19.2547 20.2564C19.0845 20.249 18.9067 20.3248 18.7365 20.31C18.5569 20.2952 18.3717 20.2952 18.1922 20.2767C18.1473 20.2711 18.1024 20.2619 18.0593 20.2471C18.0818 20.2268 18.1024 20.2064 18.1155 20.1824L18.1211 20.1769Z" fill="#505050"/>
<path d="M23.8846 10.0431C23.8846 10.0431 23.879 10.0376 23.8752 10.0339C23.8677 10.0246 23.8603 10.0154 23.8509 10.0024C23.8621 10.0172 23.8734 10.0302 23.8827 10.0431H23.8846Z" fill="#505050"/>
<path d="M8.04195 12.3981C8.02886 12.4314 8.01389 12.4665 7.99893 12.5035C7.99893 12.5035 7.99893 12.5035 7.99893 12.5016C8.01389 12.4591 8.0195 12.4185 8.02137 12.3796C8.02886 12.387 8.03634 12.3926 8.04382 12.4L8.04195 12.3981Z" fill="#505050"/>
<path d="M8.12054 12.2614C8.12054 12.2614 8.10558 12.2724 8.0981 12.2761C8.0981 12.2761 8.0981 12.2724 8.09997 12.2724C8.10745 12.2687 8.11306 12.265 8.11867 12.2614H8.12054Z" fill="#505050"/>
<path d="M8.12054 12.2614C8.1355 12.2522 8.15047 12.2429 8.16356 12.2318C8.26271 12.145 8.30012 12.1634 8.12054 12.2614Z" fill="#505050"/>
<path d="M8.10742 12.5035C8.10181 12.4666 8.07562 12.4314 8.04195 12.3963C8.04195 12.3926 8.04382 12.3889 8.04569 12.3871C8.07749 12.4241 8.10181 12.4629 8.10742 12.5035Z" fill="#505050"/>
<path d="M7.99334 12.3538C7.99334 12.3538 8.00269 12.3612 8.0083 12.3668C8.00456 12.3963 8.00082 12.4278 7.99521 12.4684C8.00269 12.4111 7.97276 12.3594 7.93722 12.3076C7.95218 12.3206 7.96902 12.3335 7.98398 12.3446C7.96902 12.3649 7.96902 12.3723 7.99334 12.352V12.3538Z" fill="#505050"/>
<path d="M8.27764 12.7254C8.56198 13.0008 8.34873 13.0063 8.2739 12.901C8.26829 12.8936 8.26268 12.8862 8.25894 12.8788C8.27951 12.8141 8.30196 12.7475 8.27764 12.7235V12.7254Z" fill="#505050"/>
<path d="M9.19989 13.7254C9.10636 13.6459 9.06146 13.5997 9.04837 13.5739C9.09513 13.6275 9.14377 13.6792 9.19989 13.7254Z" fill="#505050"/>
<path d="M12.4623 15.4705C12.4792 15.4779 12.496 15.4889 12.5128 15.4982C12.5147 15.4982 12.5166 15.5019 12.5203 15.5037C12.5016 15.4926 12.4829 15.4797 12.4623 15.4705Z" fill="#505050"/>
<path d="M7.9821 12.3464C7.9821 12.3464 7.98958 12.352 7.99146 12.3538C7.96527 12.3742 7.96714 12.3668 7.9821 12.3464Z" fill="#505050"/>
<path d="M8.00826 12.3187C8.00826 12.3187 8.01201 12.315 8.01575 12.3131C8.01388 12.3131 8.01201 12.315 8.00826 12.3168V12.3187Z" fill="#505050"/>
<path d="M8.02326 12.3279C8.0457 12.3075 8.07189 12.2928 8.09808 12.2761C8.07751 12.3131 8.06067 12.3501 8.04383 12.387C8.03635 12.3778 8.02887 12.3685 8.01952 12.3593C8.01952 12.3482 8.02139 12.3371 8.02139 12.326L8.02326 12.3279Z" fill="#505050"/>
<path d="M8.0214 12.3612C8.0214 12.3612 8.03823 12.3797 8.04572 12.3889C8.04572 12.3926 8.04384 12.3963 8.04197 12.3982C8.03449 12.3908 8.02701 12.3852 8.01953 12.3778C8.01953 12.3723 8.01953 12.3668 8.01953 12.3612H8.0214Z" fill="#505050"/>
<path d="M7.99146 12.5202C7.99146 12.5202 7.9952 12.5073 7.99707 12.4999C7.99707 12.4999 7.99707 12.4999 7.99707 12.5017C7.9952 12.5073 7.99333 12.5128 7.98959 12.5184L7.99146 12.5202Z" fill="#505050"/>
<path d="M8.02511 12.3094C8.05317 12.2965 8.07936 12.2817 8.10181 12.2706C8.10181 12.2706 8.10181 12.2743 8.09994 12.2743C8.07375 12.291 8.04756 12.3076 8.02511 12.3261C8.02511 12.3205 8.02511 12.3131 8.02511 12.3076V12.3094Z" fill="#505050"/>
<path d="M8.00452 12.3427C8.00452 12.3427 8.00826 12.339 8.01013 12.3372C8.01013 12.3409 8.01013 12.3427 8.01013 12.3464L8.00639 12.3427H8.00452Z" fill="#505050"/>
<path d="M8.02136 12.3298C8.02136 12.3298 8.01575 12.3353 8.01201 12.339C8.01201 12.3316 8.01388 12.3224 8.01575 12.315C8.01949 12.3131 8.02324 12.3113 8.02698 12.3094C8.02698 12.315 8.02698 12.3224 8.02698 12.3279C8.02698 12.3279 8.02698 12.3279 8.02511 12.3279L8.02136 12.3298Z" fill="#505050"/>
<path d="M8.00826 12.3668C8.00826 12.3668 7.99891 12.3594 7.9933 12.3539C7.99704 12.352 8.00265 12.3465 8.00639 12.3428L8.01013 12.3465C8.01013 12.3465 8.01013 12.3594 8.00826 12.365V12.3668Z" fill="#505050"/>
<path d="M8.02136 12.3612C8.02136 12.3612 8.02136 12.3723 8.02136 12.3778C8.01762 12.3741 8.01388 12.3704 8.00827 12.3668C8.00827 12.3612 8.00827 12.3538 8.01014 12.3483C8.01388 12.352 8.01762 12.3575 8.02136 12.3612Z" fill="#505050"/>
</g>
<defs>
<clipPath id="clip0_28_5940">
<rect width="28" height="30" fill="white" transform="matrix(-1 0 0 1 28 0)"/>
</clipPath>
</defs>
</svg>
