<svg width="28" height="30" viewBox="0 0 28 30" fill="none" xmlns="http://www.w3.org/2000/svg">
<g clip-path="url(#clip0_28_5877)">
<path d="M4.44655 16.099C4.42598 16.0805 4.39979 16.0694 4.36986 16.0602C4.3736 16.0639 4.37547 16.0676 4.37734 16.0694C4.46526 16.136 4.58872 16.221 4.44468 16.099H4.44655Z" fill="#505050"/>
<path d="M9.73677 17.2413C9.84714 17.1895 9.94441 17.0546 10.0604 17.038C10.0155 17.0435 9.97247 17.0564 9.92945 17.0694C9.86585 17.1359 9.80411 17.2062 9.73677 17.2395V17.2413Z" fill="#505050"/>
<path d="M9.73678 17.2413C9.7162 17.2506 9.6975 17.258 9.67505 17.2617C9.69563 17.258 9.7162 17.2506 9.73678 17.2413Z" fill="#505050"/>
<path d="M4.36238 16.049C4.27633 15.9899 4.30626 16.0157 4.36238 16.0564C4.36612 16.0564 4.36799 16.0583 4.37173 16.0601C4.36799 16.0564 4.36612 16.0509 4.36238 16.049Z" fill="#505050"/>
<path d="M3.75628 15.4593C3.75628 15.4593 3.75067 15.4538 3.74879 15.4501C3.75628 15.4593 3.76376 15.4704 3.76937 15.4796C3.76563 15.4723 3.76189 15.4649 3.75628 15.4593Z" fill="#505050"/>
<path d="M13.9476 13.3872C13.9327 13.4038 13.9214 13.4186 13.914 13.4279C13.9158 13.4279 13.9196 13.426 13.9214 13.4242C13.9327 13.4149 13.942 13.402 13.9476 13.3872Z" fill="#505050"/>
<path d="M18.8581 11.8677C18.9123 11.8751 18.9666 11.8843 19.0208 11.8935C19.0863 11.8658 19.1518 11.8381 19.2154 11.8307C19.0975 11.8362 18.9741 11.8824 18.8581 11.8677Z" fill="#505050"/>
<path d="M3.84046 15.5759C3.81615 15.5426 3.7937 15.5112 3.76938 15.4797C3.7806 15.4964 3.78996 15.513 3.79931 15.5333C3.8573 15.6091 3.91342 15.6794 3.84046 15.5759Z" fill="#505050"/>
<path d="M12.3632 15.5149C12.3744 15.489 12.3894 15.4649 12.4043 15.4409C12.3763 15.3392 12.3183 15.2246 12.3145 15.1322C12.3183 15.2542 12.4043 15.415 12.3632 15.5149Z" fill="#505050"/>
<path d="M12.1574 16.0343C12.1387 16.1692 12.1705 16.3134 12.1518 16.4484C12.1574 16.404 12.1686 16.3633 12.178 16.3208C12.1593 16.2266 12.1443 16.1304 12.1574 16.0343Z" fill="#505050"/>
<path d="M12.3145 15.1137C12.3145 15.0952 12.3183 15.0767 12.3258 15.0601C12.3183 15.0767 12.3164 15.0952 12.3145 15.1137Z" fill="#505050"/>
<path d="M20.4238 26.009C20.4238 26.009 20.4295 26.0164 20.4313 26.0183C20.4351 26.0201 20.4388 26.022 20.4425 26.0238C20.4351 26.0164 20.4313 26.0127 20.4257 26.0072L20.4238 26.009Z" fill="#505050"/>
<path d="M23.7349 26.6948C23.7779 26.7059 23.8191 26.7189 23.8621 26.7318C23.8958 26.7281 23.9276 26.7262 23.9612 26.7226C23.8883 26.7318 23.8116 26.7133 23.7349 26.6967V26.6948Z" fill="#505050"/>
<path d="M15.6163 21.2823C15.5714 21.2638 15.5358 21.225 15.5021 21.1807C15.4124 21.1807 15.3244 21.1751 15.2459 21.1418C15.3693 21.1936 15.4928 21.2306 15.6163 21.2823Z" fill="#505050"/>
<path d="M23.5329 26.6726C23.5965 26.6634 23.6657 26.6782 23.7349 26.6948C23.6657 26.6763 23.5983 26.6634 23.5329 26.6726Z" fill="#505050"/>
<path d="M19.2996 23.471C19.3295 23.4044 19.3987 23.3656 19.4698 23.3287C19.4698 23.2603 19.4698 23.1937 19.496 23.1309C19.4436 23.2529 19.3501 23.349 19.2996 23.471Z" fill="#505050"/>
<path d="M20.364 25.9406C20.3378 25.9221 20.3097 25.9 20.2854 25.8815C20.3135 25.9073 20.3584 25.9499 20.4238 26.009C20.407 25.9831 20.3883 25.9573 20.364 25.9406Z" fill="#505050"/>
<path d="M20.2873 25.8814C20.2199 25.8204 20.2405 25.8426 20.2873 25.8814V25.8814Z" fill="#505050"/>
<path d="M21.2881 26.5081C21.2488 26.4915 21.2114 26.4711 21.1758 26.4508C21.0786 26.4508 20.9813 26.4489 20.8934 26.4138C21.0168 26.4656 21.1646 26.4563 21.2862 26.5081H21.2881Z" fill="#505050"/>
<path d="M17.139 21.5854C17.109 21.5854 17.0772 21.5854 17.0473 21.5817C17.0959 21.5872 17.1465 21.578 17.1988 21.565C17.2737 21.5373 17.3485 21.5133 17.4214 21.5096C17.4401 21.5096 17.4589 21.5096 17.4776 21.5096C17.4589 21.5077 17.4401 21.5096 17.4214 21.5096C17.3485 21.5151 17.2737 21.5447 17.1988 21.565C17.1801 21.5724 17.1595 21.578 17.1408 21.5854C17.2868 21.5854 17.4364 21.5503 17.5823 21.5613C17.7582 21.5743 17.9321 21.5687 18.108 21.5724C18.2857 21.5761 18.4634 21.7573 18.6392 21.7517C18.8151 21.7462 18.9891 21.6445 19.1668 21.6297C19.2865 21.6205 19.4025 21.5724 19.5203 21.5355C19.4361 21.5355 19.352 21.5336 19.2697 21.5447C19.4062 21.5262 19.5465 21.5151 19.6831 21.4966C19.6269 21.504 19.5727 21.5188 19.5184 21.5355C19.6064 21.5355 19.6943 21.5355 19.7803 21.5207C19.9468 21.4893 20.1189 21.4856 20.2835 21.4467C20.4482 21.4079 20.5847 21.2693 20.7475 21.2212C20.9102 21.1732 21.1422 21.3321 21.3012 21.2767C21.4602 21.2212 21.5911 21.0807 21.7483 21.016C21.6248 21.0678 21.4939 21.0955 21.3723 21.1473C21.5388 21.077 21.6734 20.9421 21.8343 20.8626C21.9952 20.7831 22.1318 20.6666 22.2889 20.5779C22.4442 20.4892 22.5845 20.3857 22.7341 20.2858C22.8389 20.2156 22.9792 20.1398 23.0895 20.0788C23.0222 20.1306 22.9698 20.2452 22.9025 20.2969C22.9399 20.2692 23.0652 20.3487 23.1008 20.3191C23.1457 20.2822 23.1531 20.199 23.1962 20.162C23.3963 19.9919 23.5366 19.7812 23.7143 19.5908C23.7349 19.7498 23.6863 19.8884 23.7087 20.0474C23.7293 20.2064 23.8546 20.3524 23.8771 20.5132C23.8977 20.6722 23.8153 20.846 23.8359 21.0049C23.8565 21.1639 23.9856 21.3099 24.008 21.4708C24.0286 21.6297 23.9575 21.7813 23.9781 21.9421C23.9164 21.9126 23.8808 21.9421 23.8172 21.9163C23.9407 21.968 24.0866 21.9588 24.2101 22.0087C24.0735 21.9532 23.8939 22.0309 23.7536 21.9884C23.6133 21.9458 23.5217 21.7185 23.3776 21.6889C23.3178 21.676 23.2504 21.6926 23.1831 21.7166C23.2336 21.7407 23.2841 21.7591 23.3346 21.7665C23.198 21.748 23.0484 21.7961 22.9118 21.7776C22.996 21.7887 23.0914 21.748 23.1831 21.7185C23.0633 21.6612 22.9436 21.578 22.822 21.5724C22.6481 21.5669 22.4741 21.7813 22.3001 21.7906C22.1261 21.7998 21.9372 21.6316 21.7651 21.6538C21.9017 21.6353 22.0307 21.6113 22.1673 21.5928C21.9971 21.6168 21.8175 21.6334 21.651 21.6704C21.4826 21.7074 21.3124 21.7721 21.1478 21.822C20.9832 21.8719 20.8373 21.9865 20.6764 22.0512C20.7998 21.9994 20.9233 21.9588 21.0468 21.9089C20.8055 22.0105 20.5679 22.1307 20.3434 22.2638C20.2686 22.3082 20.2237 22.3932 20.1676 22.4653C20.1788 22.4616 20.19 22.4616 20.1975 22.4542C19.8552 22.7684 19.9842 22.6187 20.0927 22.5429C20.1227 22.5226 20.147 22.4949 20.1694 22.4653C20.1114 22.4819 20.0123 22.4579 19.9711 22.493C19.8832 22.5706 19.7542 22.6187 19.6737 22.7037C19.6382 22.7426 19.5933 22.7795 19.5577 22.8202C19.38 23.0235 19.7598 22.8997 19.8028 22.8202C19.7392 22.9422 19.713 23.0938 19.64 23.2084C19.6064 23.262 19.5409 23.2971 19.4773 23.3322C19.4792 23.4228 19.4885 23.5134 19.4642 23.5966C19.423 23.7445 19.3463 23.8757 19.3239 24.0291C19.3426 23.8942 19.3781 23.7482 19.3969 23.6132C19.3763 23.7759 19.2753 23.9312 19.2753 24.0938C19.2753 24.2565 19.1424 24.434 19.163 24.5967C19.1443 24.4617 19.2846 24.3064 19.2659 24.1696C19.2902 24.3342 19.3538 24.4876 19.3987 24.6466C19.4043 24.6687 19.4081 24.6909 19.41 24.715C19.5577 24.7205 19.7111 24.7593 19.857 24.739C20.031 24.7168 20.1919 24.5874 20.3659 24.5578C20.5398 24.5283 20.7306 24.5763 20.9027 24.5375C21.0748 24.5005 21.202 24.2806 21.3723 24.2343C21.5425 24.1881 21.7052 24.1327 21.8717 24.0791C22.0401 24.0255 22.2328 24.0532 22.3974 23.9922C22.562 23.9312 22.7678 23.9626 22.9287 23.8924C23.0895 23.8221 23.2542 23.7445 23.4113 23.6668C23.5684 23.5892 23.6507 23.3674 23.8041 23.2823C23.9575 23.1955 24.0698 23.055 24.2175 22.9588C24.3653 22.8646 24.5767 22.8664 24.7189 22.7647C24.861 22.6612 24.9059 22.4449 25.0425 22.3322C25.1772 22.2213 25.4615 22.2767 25.5887 22.1566C25.7159 22.0364 25.7646 21.8368 25.8843 21.7092C25.9947 21.5891 26.1537 21.504 26.2248 21.3709C26.2977 21.2323 26.3015 21.0585 26.3276 20.9051C26.352 20.7572 26.4062 20.5927 26.3838 20.4319C26.3632 20.2858 26.3389 20.1084 26.2771 19.9624C26.2154 19.82 26.0901 19.6906 25.9872 19.576C25.8843 19.4596 25.7702 19.3006 25.628 19.234C25.4709 19.1619 25.2183 19.3172 25.0575 19.2562C24.8966 19.1952 24.7507 19.1139 24.5861 19.064C24.4214 19.0141 24.298 18.807 24.1296 18.77C23.9613 18.7331 23.7611 18.8736 23.589 18.8477C23.4188 18.8218 23.2542 18.8033 23.0821 18.7904C22.91 18.7774 22.7472 18.5112 22.5751 18.5094C22.403 18.5094 22.2234 18.5907 22.0513 18.6018C21.8792 18.6129 21.7109 18.685 21.5388 18.709C21.3685 18.7331 21.1721 18.6462 21.0019 18.6813C20.8335 18.7164 20.7082 18.9364 20.5417 18.9845C20.3771 19.0325 20.1919 19.0214 20.031 19.0824C19.8664 19.1453 19.6531 19.1083 19.4941 19.1804C19.3333 19.2525 19.2659 19.5132 19.1106 19.5963C18.9554 19.6795 18.6916 19.5908 18.5457 19.6851C18.3979 19.7812 18.3624 20.0381 18.224 20.1454C18.0837 20.2526 17.8854 20.2914 17.7582 20.4097C17.6291 20.528 17.5954 20.7369 17.4776 20.8681C17.3616 20.9994 17.2718 21.1399 17.1689 21.2822C17.0791 21.4061 16.9426 21.4948 16.8509 21.6168C16.864 21.6205 16.8752 21.626 16.8883 21.6279C16.9687 21.6445 17.0548 21.6186 17.1427 21.5891L17.139 21.5854Z" fill="#505050"/>
<path d="M4.36986 16.0601C4.36986 16.0601 4.36425 16.0582 4.3605 16.0564C4.36612 16.0601 4.37173 16.0656 4.37734 16.0693C4.37547 16.0656 4.37173 16.0619 4.36986 16.0601Z" fill="#505050"/>
<path d="M5.43613 16.709C5.46232 16.7164 5.48851 16.7238 5.51282 16.733C5.48851 16.7219 5.46232 16.7145 5.43613 16.709Z" fill="#505050"/>
<path d="M17.1988 21.5651C17.2736 21.5448 17.3485 21.5152 17.4214 21.5096C17.3503 21.5133 17.2755 21.5392 17.1988 21.5651Z" fill="#505050"/>
<path d="M19.7579 25.5247C19.8103 25.5395 19.887 25.5358 19.9225 25.5598C19.8776 25.5284 19.6157 25.3528 19.7579 25.5247Z" fill="#505050"/>
<path d="M6.6689 17.1009C6.72128 17.1083 6.77366 17.1267 6.82416 17.1489C6.9177 17.1083 7.01123 17.0676 7.09354 17.0787C6.95698 17.0602 6.80546 17.1175 6.6689 17.099V17.1009Z" fill="#505050"/>
<path d="M5.12 16.6295C5.14993 16.6425 5.17611 16.6591 5.2023 16.6776C5.28087 16.685 5.36131 16.6905 5.43614 16.7072C5.33138 16.6794 5.21727 16.6702 5.12 16.6295Z" fill="#505050"/>
<path d="M19.9749 12.3094C19.9749 12.3094 19.9749 12.3075 19.9749 12.3057C19.9431 12.2854 19.9113 12.2613 19.8795 12.2373C19.887 12.2484 19.8926 12.2595 19.8982 12.2706C19.9206 12.2817 19.9468 12.2946 19.9749 12.3094Z" fill="#505050"/>
<path d="M20.0647 12.3076C20.1133 12.2392 20.1713 12.1708 20.1601 12.0931C20.1694 12.1782 20.0834 12.254 20.0067 12.3298C20.0104 12.3353 20.0142 12.339 20.0179 12.3445C20.0329 12.3316 20.0497 12.3187 20.0647 12.3076Z" fill="#505050"/>
<path d="M13.0946 19.1934C13.016 19.101 13.0834 19.3136 13.104 19.4134C13.1451 19.4097 13.1844 19.4078 13.2255 19.4041C13.2106 19.3857 13.1937 19.369 13.1769 19.3505C13.1395 19.3062 13.132 19.2359 13.0946 19.1916V19.1934Z" fill="#505050"/>
<path d="M3.79931 15.5333C3.79183 15.5148 3.7806 15.4963 3.76938 15.4797C3.7619 15.4704 3.75441 15.4594 3.7488 15.4501C3.68146 15.3725 3.74132 15.4557 3.79931 15.5333Z" fill="#505050"/>
<path d="M9.92946 17.0694C9.99493 16.9992 10.0623 16.9345 10.139 16.9216C10.3073 16.8938 10.485 16.9327 10.6515 16.9012C10.818 16.8698 11.0257 17.0232 11.1921 16.9881C11.3586 16.953 11.4709 16.6831 11.6374 16.6443C11.8039 16.6055 12.0059 16.7164 12.1724 16.6739C12.193 16.6683 12.2135 16.6572 12.2341 16.648C12.2285 16.5389 12.2023 16.4299 12.1799 16.3208C12.1705 16.3633 12.1593 16.4058 12.1537 16.4483C12.1724 16.3134 12.1406 16.1692 12.1593 16.0343C12.1481 16.1304 12.1611 16.2247 12.1799 16.3208C12.2023 16.2154 12.2304 16.1119 12.2547 16.0065C12.2902 15.8568 12.3651 15.7293 12.4137 15.5832C12.4268 15.5426 12.4212 15.4926 12.4062 15.4427C12.3912 15.4668 12.3763 15.4908 12.3651 15.5167C12.4081 15.4169 12.3202 15.256 12.3164 15.134C12.3164 15.1285 12.3164 15.1211 12.3164 15.1155C12.3164 15.0971 12.3202 15.0786 12.3276 15.0619C12.3202 15.0786 12.3183 15.0971 12.3164 15.1155C12.3164 15.1211 12.3164 15.1285 12.3164 15.134C12.3202 15.2283 12.3781 15.3411 12.4062 15.4427C12.4698 15.3429 12.5615 15.2542 12.6176 15.1507C12.6868 15.0213 12.6531 14.842 12.7317 14.7181C12.8103 14.5943 12.8739 14.463 12.9599 14.3447C13.0254 14.256 13.1863 14.1118 12.8814 14.4741C12.9113 14.439 12.9618 14.4205 12.9899 14.3835C13.0647 14.2948 13.1395 14.2079 13.2181 14.1229C13.3621 13.9657 13.4089 13.7106 13.566 13.5665C13.6521 13.487 13.8204 13.4962 13.914 13.426C13.9214 13.4149 13.9345 13.4019 13.9476 13.3853C13.9645 13.3539 13.9757 13.3151 14.0019 13.2929C14.1384 13.182 14.0187 13.304 13.9476 13.3853C13.9401 13.4001 13.9327 13.413 13.9214 13.4223C13.9196 13.4223 13.9158 13.4241 13.914 13.426C13.899 13.4463 13.899 13.4519 13.9327 13.426C14.1216 13.2892 14.2881 13.121 14.4864 12.9971C14.6211 12.9121 14.6996 12.7254 14.8381 12.6477C14.9784 12.5719 15.1654 12.5756 15.3076 12.5054C15.4516 12.437 15.6032 12.3815 15.7491 12.3205C15.6256 12.3723 15.5545 12.5461 15.4311 12.5978C15.5788 12.5368 15.6967 12.4019 15.8482 12.3483C15.9997 12.2947 16.1326 12.1819 16.2859 12.1357C16.4393 12.0895 16.574 11.9564 16.7312 11.9176C16.8864 11.8806 17.066 11.9176 17.2231 11.8861C17.3803 11.8566 17.5337 11.7734 17.6927 11.753C17.5561 11.7715 17.4327 11.8584 17.2961 11.8769C17.4589 11.8566 17.6366 12.0007 17.8012 11.9897C17.9658 11.9767 18.1229 11.9712 18.2876 11.9693C18.4522 11.9675 18.6093 11.9471 18.7739 11.9564C18.8544 11.9601 18.9367 11.925 19.0209 11.8898C18.9666 11.8806 18.9124 11.8713 18.8581 11.864C18.9741 11.8787 19.0975 11.8325 19.2154 11.827C19.2378 11.8251 19.2584 11.8233 19.2809 11.827C19.2603 11.8233 19.2378 11.827 19.2154 11.827C19.1518 11.8344 19.0863 11.8621 19.0209 11.8898C19.1424 11.9102 19.2659 11.9305 19.3856 11.9619C19.5577 12.0063 19.7691 11.9434 19.9356 12.01C19.8121 11.9582 19.7429 12.0691 19.6195 12.0192C19.7411 12.071 19.7298 12.1394 19.8439 12.2078C19.857 12.2152 19.8683 12.2263 19.8814 12.2355C19.8047 12.1117 19.9057 12.2115 19.9749 12.2891C19.9711 12.2521 19.9655 12.2152 19.9487 12.1764C19.9693 12.2281 19.9786 12.2651 19.9842 12.3002C19.9936 12.3113 20.0011 12.3205 20.0086 12.3279C20.0853 12.2521 20.1713 12.1764 20.162 12.0913C20.1732 12.169 20.1152 12.2355 20.0665 12.3058C20.1358 12.2503 20.2031 12.1948 20.2106 12.132C20.1825 12.3058 20.1208 12.4758 20.0553 12.6385C20.1077 12.5165 20.0796 12.3778 20.132 12.2558C20.0965 12.339 20.0516 12.4185 20.0048 12.4962C20.0067 12.5035 20.0067 12.5091 20.0104 12.5165C20.0086 12.5109 20.0067 12.5054 20.0029 12.4999C19.9225 12.6293 19.8327 12.755 19.7448 12.877C19.7635 12.938 19.7822 12.9971 19.7616 13.0211C19.6737 13.121 19.4081 13.0544 19.3127 13.1468C19.1799 13.2781 19.0732 13.4334 18.9516 13.572C18.9385 13.5979 18.8936 13.6441 18.8001 13.7236C18.8544 13.6774 18.903 13.6256 18.9516 13.572C18.9909 13.4962 18.7384 13.6219 18.6542 13.6792C18.5438 13.755 18.5551 14.012 18.4409 14.0822C18.295 14.1709 18.1547 14.2782 18.007 14.3632C17.8573 14.4482 17.6515 14.4371 17.5019 14.5203C17.3504 14.6016 17.182 14.6497 17.0286 14.7273C16.8752 14.8068 16.7256 14.8882 16.5722 14.964C16.4188 15.0397 16.2654 15.1155 16.1082 15.1895C15.953 15.2616 15.7958 15.33 15.6387 15.4002C15.5863 15.4242 15.5377 15.4575 15.4909 15.4945C15.5078 15.4852 15.5246 15.4742 15.5414 15.4668C15.5209 15.476 15.5021 15.4871 15.4834 15.5C15.3936 15.5703 15.3076 15.6516 15.2047 15.6941C15.3076 15.6516 15.388 15.5592 15.4834 15.5C15.4853 15.5 15.4872 15.4963 15.4909 15.4945C15.3581 15.5666 15.2421 15.6849 15.1018 15.7403C14.9428 15.8032 14.8044 15.916 14.6435 15.977C14.4845 16.0361 14.2731 15.9622 14.1122 16.0176C13.9514 16.0749 13.7587 16.0343 13.5978 16.0879C13.4369 16.1415 13.3172 16.3208 13.1545 16.3707C12.9917 16.4206 12.8028 16.3855 12.64 16.4317C12.4979 16.4724 12.3763 16.587 12.2378 16.6461C12.2378 16.6572 12.2378 16.6683 12.2378 16.6794C12.2378 16.8957 12.0975 17.1138 12.1237 17.3301C12.105 17.1952 11.9965 17.0731 11.9778 16.9382C12.0003 17.1064 12.0863 17.2691 12.1237 17.4318C12.1611 17.5963 12.3258 17.7257 12.3781 17.8847C12.4287 18.0455 12.539 18.1804 12.6026 18.3375C12.5502 18.2155 12.2884 18.1767 12.2378 18.0547C12.3202 18.247 12.5297 18.3838 12.6307 18.5668C12.7317 18.7498 12.7878 18.9605 12.9057 19.1343C12.9655 19.223 13.0067 19.3284 13.0684 19.4171C13.0815 19.4171 13.0927 19.4134 13.1058 19.4134C13.0871 19.3136 13.0179 19.101 13.0965 19.1934C13.1339 19.2378 13.1414 19.308 13.1788 19.3524C13.1938 19.3709 13.2106 19.3875 13.2274 19.406C13.3172 19.4005 13.407 19.3949 13.4931 19.3709C13.667 19.321 13.8859 19.4171 14.058 19.3635C14.2338 19.3099 14.4153 19.2655 14.5911 19.2082C14.7651 19.1509 14.9129 19.0086 15.0869 18.9476C15.2608 18.8866 15.4498 18.8644 15.6219 18.7997C15.794 18.735 15.923 18.5575 16.0933 18.491C16.2654 18.4226 16.4075 18.2895 16.5759 18.2192C16.7461 18.1472 16.9968 18.2581 17.1652 18.1841C17.3335 18.1102 17.4963 18.0196 17.6628 17.942C17.8292 17.8643 17.9901 17.7682 18.1547 17.6869C18.3194 17.6055 18.4578 17.4706 18.6205 17.3856C18.7814 17.3024 18.9479 17.2303 19.105 17.1452C19.264 17.0584 19.4455 17.0103 19.6008 16.9179C19.756 16.8254 19.8608 16.6517 20.0123 16.5556C20.1638 16.4576 20.2835 16.3189 20.4313 16.2154C20.5791 16.1119 20.6876 15.9659 20.8279 15.8531C20.9682 15.7403 21.101 15.6294 21.2338 15.5093C21.3667 15.3891 21.5051 15.2838 21.6304 15.1544C21.7558 15.025 21.9185 14.9381 22.0326 14.7994C22.1467 14.6626 22.2215 14.5 22.3263 14.3521C22.4161 14.2245 22.5152 14.1062 22.5919 13.9639C22.6686 13.8253 22.8763 13.7439 22.9361 13.5942C22.996 13.4463 23.0372 13.2818 23.0783 13.1284C23.1195 12.9731 23.0708 12.7975 23.0895 12.6403C23.1082 12.4814 23.1962 12.3187 23.1868 12.1597C23.1775 11.9878 23.1494 11.8122 23.1138 11.6532C23.0783 11.4869 22.8763 11.3741 22.8164 11.2207C22.7547 11.0654 22.7696 10.8768 22.6836 10.7345C22.5975 10.5922 22.4329 10.5071 22.3244 10.3777C22.2178 10.2502 22.1243 10.1208 21.9989 10.0043C21.8773 9.89156 21.7427 9.80098 21.6042 9.70116C21.4639 9.59949 21.3255 9.51815 21.1758 9.44051C21.0225 9.36287 20.9009 9.22423 20.74 9.16693C20.5791 9.10962 20.4407 8.9488 20.2742 8.90813C20.1077 8.86747 19.9075 8.95435 19.7392 8.92662C19.569 8.89704 19.395 8.90813 19.2266 8.88595C19.0302 8.86192 18.8413 8.73992 18.6467 8.73437C18.4503 8.72882 18.2558 8.88595 18.0612 8.89519C17.8667 8.90444 17.6534 8.71404 17.4589 8.73437C17.2643 8.7547 17.0828 8.89704 16.8883 8.92292C16.7125 8.94695 16.5422 9.00795 16.3645 9.04123C16.1905 9.0745 15.9885 9.00426 15.8145 9.04677C15.6424 9.08929 15.4685 9.15214 15.2982 9.2039C15.128 9.25566 14.954 9.31112 14.7857 9.37212C14.6173 9.43312 14.4564 9.51815 14.2918 9.5884C14.1272 9.65679 13.9551 9.71964 13.7942 9.79728C13.6334 9.87492 13.4837 9.98029 13.3284 10.0653C13.1732 10.1522 13.0235 10.2557 12.872 10.3481C12.7205 10.4424 12.6008 10.5829 12.4548 10.6846C12.3089 10.7863 12.2117 10.9489 12.0732 11.058C11.9329 11.1689 11.7272 11.1966 11.5943 11.3149C11.4615 11.4332 11.3736 11.5959 11.2464 11.7216C11.1211 11.8473 10.9097 11.8972 10.7918 12.0285C10.674 12.1616 10.5561 12.3002 10.4476 12.4407C10.3391 12.5812 10.4102 12.8474 10.3111 12.9934C10.2119 13.1394 9.93881 13.1783 9.85089 13.3317C9.76671 13.4759 9.82657 13.6977 9.75361 13.8493C9.68066 14.0009 9.41128 14.0693 9.34955 14.2245C9.28782 14.3798 9.38509 14.5961 9.33459 14.7569C9.28408 14.9177 9.31214 15.0934 9.27473 15.256C9.23544 15.4187 9.16997 15.5703 9.14378 15.7366C9.11759 15.903 9.01283 16.0583 9.00161 16.2247C8.99038 16.391 8.92117 16.5629 8.92304 16.7293C8.92491 16.8975 8.96045 17.0694 8.97916 17.2358C8.98103 17.2562 8.97916 17.2746 8.98103 17.295C9.15687 17.2783 9.33272 17.2192 9.50856 17.2007C9.6526 17.1859 9.79103 17.112 9.93133 17.0658L9.92946 17.0694Z" fill="#505050"/>
<path d="M20.0067 12.3538C20.0067 12.3538 20.0142 12.3483 20.016 12.3465C20.0123 12.3428 20.0104 12.3372 20.0048 12.3317L19.9936 12.3428C19.9936 12.3428 20.0029 12.3502 20.0067 12.3538Z" fill="#505050"/>
<path d="M19.9917 12.3187C19.9917 12.3187 19.988 12.3169 19.9842 12.315C19.9842 12.3224 19.9861 12.3298 19.988 12.3391C19.9899 12.3391 19.9917 12.3428 19.9936 12.3446L20.0048 12.3335C20.0048 12.3335 19.9899 12.315 19.9805 12.3058C19.9805 12.3095 19.9805 12.3132 19.9824 12.3169C19.9842 12.3169 19.9861 12.3206 19.9899 12.3224L19.9917 12.3187Z" fill="#505050"/>
<path d="M19.9842 12.315C19.9842 12.315 19.9842 12.3076 19.9824 12.3039C19.9786 12.3002 19.9767 12.2965 19.973 12.2928C19.973 12.2984 19.973 12.3021 19.973 12.3076C19.9767 12.3095 19.9805 12.3132 19.9842 12.315Z" fill="#505050"/>
<path d="M19.973 12.2928C19.9038 12.2133 19.8028 12.1153 19.8795 12.2391C19.9113 12.2632 19.9412 12.2872 19.9749 12.3075C19.9749 12.302 19.9749 12.2983 19.9749 12.2928H19.973Z" fill="#505050"/>
<path d="M16.271 24.3804C16.4356 24.4137 16.5722 24.5912 16.7405 24.617C16.907 24.6411 17.066 24.7557 17.2344 24.7723C17.4009 24.789 17.5767 24.789 17.7451 24.7982C17.9134 24.8074 18.0855 24.8259 18.2557 24.8259C18.4316 24.8259 18.6093 24.7686 18.787 24.7612C18.9629 24.7538 19.1387 24.7243 19.3145 24.7095C19.3445 24.7076 19.3744 24.7095 19.4043 24.7095C19.4025 24.6854 19.3987 24.6633 19.3931 24.6411C19.3482 24.4821 19.2846 24.3287 19.2603 24.1642C19.279 24.2991 19.1387 24.4544 19.1574 24.5912C19.135 24.4285 19.2696 24.251 19.2696 24.0884C19.2696 23.9257 19.3707 23.7723 19.3912 23.6077C19.3725 23.7427 19.337 23.8887 19.3183 24.0237C19.3407 23.8702 19.4193 23.739 19.4586 23.5911C19.481 23.5079 19.4735 23.4155 19.4717 23.3268C19.4006 23.3656 19.3295 23.4044 19.3014 23.4691C19.3538 23.3471 19.4474 23.251 19.4979 23.129C19.4717 23.19 19.4698 23.2584 19.4717 23.3268C19.5353 23.2916 19.6008 23.2584 19.6344 23.2029C19.7074 23.0883 19.7336 22.9367 19.7972 22.8147C19.756 22.8942 19.3744 23.0181 19.5521 22.8147C19.5877 22.7759 19.6307 22.7371 19.6681 22.6983C19.7485 22.6132 19.8776 22.5652 19.9655 22.4875C20.0067 22.4506 20.1058 22.4764 20.1638 22.4598C20.2199 22.3877 20.2648 22.3027 20.3397 22.2583C20.5641 22.1252 20.8017 22.0032 21.043 21.9034C20.9196 21.9551 20.7961 21.9958 20.6726 22.0457C20.8316 21.981 20.9794 21.8683 21.144 21.8165C21.3087 21.7647 21.4789 21.7019 21.6473 21.6649C21.8156 21.6279 21.9933 21.6113 22.1636 21.5873C22.027 21.6058 21.8979 21.6298 21.7614 21.6483C21.9335 21.6261 22.1243 21.7943 22.2964 21.7851C22.4703 21.7758 22.6443 21.5614 22.8183 21.5669C22.9399 21.5706 23.0596 21.6557 23.1793 21.713C23.2467 21.6908 23.314 21.6723 23.3739 21.6853C23.5179 21.7167 23.6077 21.9422 23.7499 21.9847C23.8902 22.0272 24.0679 21.9496 24.2063 22.0051C24.0828 21.9533 23.9369 21.9625 23.8135 21.9126C23.8771 21.9404 23.9107 21.9108 23.9743 21.9385C23.9538 21.7795 24.0267 21.6279 24.0043 21.4671C23.9837 21.3082 23.8546 21.1621 23.8322 21.0013C23.8116 20.8423 23.8939 20.6686 23.8733 20.5096C23.8528 20.3506 23.7256 20.2027 23.705 20.0437C23.6844 19.8848 23.733 19.7461 23.7106 19.5872C23.5329 19.7794 23.3907 19.9901 23.1924 20.1584C23.1494 20.1953 23.1419 20.2804 23.097 20.3155C23.0615 20.3451 22.9361 20.2656 22.8987 20.2933C22.9661 20.2415 23.0184 20.1269 23.0858 20.0752C22.9754 20.1362 22.8351 20.212 22.7304 20.2822C22.5807 20.382 22.4423 20.4856 22.2851 20.5743C22.1299 20.663 21.9933 20.7813 21.8306 20.859C21.6678 20.9366 21.535 21.0734 21.3685 21.1436C21.492 21.0919 21.6211 21.0641 21.7445 21.0124C21.5874 21.0771 21.4564 21.2176 21.2974 21.273C21.1384 21.3285 20.9065 21.1714 20.7437 21.2176C20.581 21.2656 20.4444 21.4024 20.2798 21.4431C20.1152 21.4819 19.9431 21.4856 19.7766 21.517C19.6905 21.5337 19.6026 21.5337 19.5147 21.5318C19.3969 21.5688 19.2827 21.615 19.1611 21.6261C18.9853 21.6409 18.8113 21.7426 18.6336 21.7481C18.4578 21.7537 18.2782 21.5725 18.1024 21.5688C17.9265 21.5651 17.7525 21.5688 17.5767 21.5577C17.4308 21.5466 17.2811 21.5817 17.1352 21.5817C17.0473 21.6132 16.9594 21.6372 16.8808 21.6206C16.8677 21.6187 16.8565 21.6113 16.8434 21.6095C16.8303 21.6279 16.8153 21.6427 16.8041 21.6631C16.7181 21.8128 16.5815 21.9441 16.5104 22.1049C16.4412 22.262 16.4562 22.4561 16.4038 22.6243C16.3495 22.7925 16.3477 22.9681 16.3159 23.1382C16.2822 23.312 16.329 23.482 16.3159 23.6558C16.3009 23.8314 16.1008 23.9978 16.1064 24.1715C16.1082 24.2418 16.1064 24.3139 16.1045 24.386C16.1625 24.373 16.2186 24.3638 16.2729 24.3749L16.271 24.3804Z" fill="#505050"/>
<path d="M16.1064 24.1771C16.1007 24.0033 16.3028 23.837 16.3159 23.6614C16.329 23.4876 16.2841 23.3157 16.3159 23.1438C16.3495 22.9737 16.3514 22.7981 16.4038 22.6299C16.458 22.4616 16.4412 22.2675 16.5104 22.1104C16.5815 21.9496 16.7181 21.8184 16.8041 21.6686C16.8153 21.6501 16.8303 21.6335 16.8434 21.615C16.6732 21.5688 16.5179 21.456 16.3495 21.4117C16.1681 21.3636 16.0016 21.273 15.822 21.212C15.7247 21.1788 15.6106 21.1825 15.5003 21.1806C15.5321 21.225 15.5695 21.2619 15.6144 21.2823C15.4909 21.2305 15.3674 21.1935 15.244 21.1418C15.3226 21.1732 15.4105 21.1788 15.5003 21.1806C15.4254 21.0808 15.3693 20.944 15.2702 20.8941C15.1261 20.8238 14.9615 20.8054 14.8231 20.7259C14.6847 20.6464 14.4546 20.7111 14.3199 20.6242C14.217 20.5558 14.1104 20.4856 14.0112 20.4153C13.8447 20.2952 14.1534 20.4856 14.1758 20.4985C14.1253 20.4689 14.0711 20.4098 14.0262 20.3728C13.8578 20.236 13.7905 19.9883 13.6352 19.8386C13.4912 19.6981 13.3546 19.5576 13.2237 19.406C13.1825 19.4079 13.1414 19.4116 13.1021 19.4152C13.1114 19.4633 13.1096 19.4855 13.0759 19.4393C13.0722 19.4337 13.0684 19.4263 13.0647 19.4189C13.0254 19.4245 12.9861 19.4282 12.9487 19.4393C12.7747 19.4855 12.6419 19.6925 12.4661 19.7332C12.2902 19.7757 12.1293 19.8903 11.9535 19.9273C11.7777 19.9661 11.5999 20.0123 11.4222 20.0474C11.2445 20.0807 11.0631 20.1048 10.8835 20.1343C10.7058 20.1639 10.5094 20.09 10.3298 20.1158C10.1951 20.1343 10.066 20.2009 9.93506 20.2415C10.0473 20.3395 10.2493 20.3839 10.3279 20.5022C10.4214 20.6445 10.3859 20.8719 10.4906 21.0087C10.601 21.1529 10.6366 21.3618 10.7544 21.4986C10.8723 21.6372 11.0874 21.6945 11.2127 21.8257C11.3381 21.957 11.3998 22.1548 11.5326 22.2805C11.6654 22.4043 11.8918 22.4284 12.0302 22.5448C12.1705 22.6613 12.294 22.7944 12.4417 22.9016C12.5877 23.0088 12.771 23.0606 12.9244 23.1585C13.0778 23.2565 13.1488 23.4913 13.3097 23.5782C13.4687 23.665 13.6558 23.715 13.8204 23.7907C13.9738 23.861 14.1945 23.776 14.3498 23.8388C14.5069 23.9017 14.5986 24.1272 14.7576 24.1826C14.9166 24.2381 15.0906 24.2603 15.2515 24.3083C15.4123 24.3564 15.5751 24.41 15.7397 24.4488C15.8519 24.4766 15.981 24.4211 16.1045 24.3915C16.1064 24.3194 16.1082 24.2473 16.1064 24.1771Z" fill="#505050"/>
<path d="M27.9981 27.1144C27.9663 26.9628 27.6782 26.8963 27.6016 26.7503C27.5249 26.6061 27.4538 26.5155 27.3322 26.412C27.2106 26.3066 27.1414 26.1587 26.9917 26.0977C26.8421 26.0367 26.7055 25.8907 26.5446 25.874C26.3838 25.8574 26.1836 25.8056 26.0265 25.8371C25.8675 25.8685 25.6729 25.9498 25.5345 26.033C25.4185 26.1033 25.3362 26.2197 25.2165 26.2807C25.0967 26.3417 24.9471 26.412 24.8236 26.4674C24.9471 26.4157 25.1529 26.4767 25.2763 26.4249C25.0949 26.5007 24.8648 26.436 24.6777 26.4933C24.4906 26.5525 24.3373 26.7244 24.1464 26.7669C24.0585 26.7872 23.9613 26.7613 23.864 26.7336C23.7368 26.7484 23.6096 26.7613 23.4824 26.7706C23.3215 26.7817 23.1606 26.7706 22.9997 26.7706C22.8389 26.7706 22.6761 26.826 22.5134 26.815C22.3525 26.8039 22.2047 26.6874 22.0438 26.6671C22.1804 26.6856 22.2795 26.9333 22.4161 26.9517C22.2402 26.9259 22.0719 26.8408 21.8998 26.802C21.7258 26.7632 21.6061 26.5321 21.4359 26.4804C21.3554 26.4563 21.2675 26.4563 21.1796 26.4545C21.2151 26.4748 21.2525 26.4952 21.2918 26.5118C21.1684 26.46 21.0206 26.4693 20.899 26.4175C20.985 26.4526 21.0823 26.4545 21.1815 26.4545C21.0917 26.4009 21.0075 26.3399 20.9139 26.2918C20.783 26.2253 20.639 26.192 20.5136 26.1144C20.48 26.094 20.4575 26.0589 20.4351 26.0238C20.3322 25.9461 20.0684 26.0312 19.9749 25.9424C19.872 25.8445 19.8626 25.6485 19.7691 25.5395C19.7654 25.5339 19.7635 25.5321 19.7598 25.5284C19.7392 25.5228 19.7223 25.5154 19.713 25.5006C19.6363 25.3879 19.67 25.2123 19.6045 25.0921C19.539 24.972 19.4754 24.8426 19.4212 24.7169C19.4735 24.8389 19.3632 25.0403 19.4156 25.1605C19.3594 25.0274 19.4156 24.8573 19.4062 24.7113C19.3763 24.7113 19.3463 24.7076 19.3164 24.7113C19.1406 24.7261 18.9629 24.7557 18.7889 24.7631C18.613 24.7705 18.4335 24.8278 18.2576 24.8278C18.0893 24.8278 17.9153 24.8093 17.7469 24.8C17.5786 24.7908 17.4046 24.7908 17.2362 24.7742C17.0679 24.7575 16.9089 24.6448 16.7424 24.6189C16.5759 24.5948 16.4393 24.4155 16.2728 24.3823C16.2205 24.3712 16.1625 24.3804 16.1045 24.3934C16.1007 24.5006 16.0989 24.6096 16.1138 24.7132C16.1382 24.8869 16.14 25.0755 16.1812 25.2474C16.2223 25.4175 16.3121 25.5857 16.3701 25.752C16.4281 25.9184 16.6545 26.0182 16.7274 26.1791C16.8004 26.338 16.8602 26.4988 16.9463 26.6523C17.0323 26.8057 17.0192 27.0183 17.1184 27.1643C17.2175 27.3104 17.356 27.4305 17.4663 27.5673C17.5786 27.7059 17.6384 27.9 17.7638 28.0239C17.891 28.1514 18.0144 28.2975 18.151 28.4102C18.2894 28.523 18.5569 28.4712 18.7047 28.5711C18.8525 28.6709 18.9685 28.8169 19.1237 28.902C19.279 28.9888 19.4792 28.9814 19.6419 29.0554C19.8046 29.1293 19.8851 29.3992 20.0534 29.4602C20.2218 29.5212 20.3939 29.5952 20.566 29.6451C20.7381 29.695 20.9289 29.7024 21.1029 29.7412C21.2769 29.78 21.4826 29.6765 21.6585 29.7061C21.8362 29.7356 22.0195 29.6857 22.1972 29.7061C22.3675 29.7264 22.519 29.9944 22.6929 30.0018C22.865 30.0092 23.0446 29.9408 23.2186 29.9371C23.3907 29.9334 23.5534 29.7486 23.7255 29.7356C23.8976 29.7227 24.0922 29.9168 24.2643 29.8909C24.4345 29.8669 24.6104 29.8318 24.7806 29.7967C24.949 29.7615 25.0724 29.5397 25.2389 29.4935C25.4054 29.4473 25.5869 29.4584 25.7496 29.4029C25.9123 29.3475 26.047 29.2273 26.206 29.1608C26.365 29.0942 26.5933 29.1737 26.7467 29.0979C26.9001 29.0203 27.0834 28.9777 27.2312 28.889C27.3733 28.804 27.4238 28.5859 27.5267 28.4712C27.6352 28.3492 27.6932 28.2051 27.7549 28.0609C27.8185 27.9148 27.7549 27.7614 27.768 27.6024C27.783 27.4453 28.0318 27.2752 28 27.1163L27.9981 27.1144Z" fill="#505050"/>
<path d="M3.15392 14.6756C3.2063 14.7976 3.3466 14.8752 3.39711 14.9954C3.3784 14.9491 3.36905 14.9011 3.36157 14.8512C3.27739 14.7994 3.1876 14.7513 3.15205 14.6737L3.15392 14.6756Z" fill="#505050"/>
<path d="M10.8854 20.1343C11.0631 20.1047 11.2464 20.0807 11.4241 20.0474C11.6018 20.0141 11.7795 19.9661 11.9554 19.9273C12.1312 19.8884 12.2921 19.7757 12.4679 19.7332C12.6438 19.6907 12.7766 19.4855 12.9506 19.4393C12.988 19.43 13.0273 19.4245 13.0665 19.4189C13.0067 19.3283 12.9655 19.2248 12.9038 19.1361C12.7859 18.9623 12.728 18.7516 12.6288 18.5686C12.5278 18.3856 12.3183 18.2488 12.236 18.0565C12.2883 18.1785 12.5502 18.2174 12.6007 18.3394C12.5353 18.1841 12.4268 18.0473 12.3763 17.8865C12.3239 17.7257 12.1593 17.5963 12.1219 17.4336C12.0844 17.2691 11.9984 17.1064 11.9759 16.94C11.9947 17.075 12.1032 17.197 12.1219 17.3319C12.0957 17.1156 12.236 16.8975 12.236 16.6812C12.236 16.6701 12.236 16.659 12.236 16.6479C12.2154 16.6572 12.1948 16.6683 12.1742 16.6738C12.0096 16.7163 11.8057 16.6054 11.6392 16.6443C11.4727 16.6831 11.3605 16.953 11.194 16.9881C11.0275 17.0232 10.8218 16.8698 10.6534 16.9012C10.485 16.9326 10.3073 16.8938 10.1408 16.9215C10.066 16.9345 9.99866 16.9992 9.93132 17.0694C9.97434 17.0546 10.0174 17.0435 10.0623 17.038C9.94628 17.0528 9.84901 17.1877 9.73864 17.2413C9.71806 17.2506 9.69749 17.258 9.67691 17.2617C9.69749 17.258 9.71806 17.2524 9.73864 17.2413C9.80598 17.2062 9.86772 17.136 9.93132 17.0713C9.79102 17.1175 9.65259 17.1914 9.50855 17.2062C9.33271 17.2228 9.15687 17.282 8.98102 17.3005C8.98664 17.4521 8.96232 17.6129 8.98851 17.7608C9.01657 17.929 9.20176 18.0695 9.24105 18.234C9.28033 18.4004 9.18118 18.6056 9.23169 18.7682C9.2822 18.9309 9.54222 19.0233 9.60395 19.1823C9.66568 19.3413 9.65259 19.5261 9.72555 19.6814C9.79663 19.8348 9.7985 20.0289 9.88081 20.1768C9.89391 20.2008 9.91448 20.223 9.93693 20.2415C10.0697 20.2008 10.1988 20.1343 10.3316 20.1158C10.5112 20.0918 10.7058 20.1639 10.8854 20.1343Z" fill="#505050"/>
<path d="M9.87894 20.1769C9.79664 20.0271 9.79476 19.8349 9.72368 19.6815C9.65072 19.5262 9.66382 19.3413 9.60209 19.1824C9.54036 19.0234 9.28033 18.931 9.22983 18.7683C9.17932 18.6056 9.27846 18.4004 9.23918 18.2341C9.19989 18.0695 9.0147 17.929 8.98664 17.7608C8.96045 17.6129 8.98664 17.454 8.97916 17.3005C8.96606 17.3005 8.95484 17.3042 8.94174 17.3061C8.75281 17.3172 8.55452 17.1508 8.36558 17.1545C8.17665 17.1582 7.98771 17.2118 7.79877 17.2063C7.60984 17.2007 7.40968 17.3283 7.22074 17.3135C7.08418 17.3024 6.95511 17.2118 6.82416 17.1527C6.72876 17.1952 6.63148 17.2358 6.5473 17.2192C6.38081 17.1859 6.22929 17.0639 6.06467 17.0214C5.90005 16.9789 5.7186 16.9752 5.55772 16.9216C5.42678 16.8772 5.32202 16.7589 5.2023 16.6813C5.11064 16.672 5.02272 16.6609 4.94789 16.6221C4.78327 16.5352 4.65046 16.3911 4.49519 16.2875C4.43346 16.2469 4.42785 16.1323 4.37921 16.0731C4.3736 16.0694 4.36799 16.0639 4.36237 16.0602C4.22769 16.0195 4.03127 16.0454 3.94148 15.9566C3.8442 15.8605 3.85356 15.6701 3.79931 15.5352C3.74132 15.4575 3.68146 15.3762 3.7488 15.452C3.73009 15.4261 3.70952 15.4021 3.69268 15.3744C3.61224 15.2524 3.57857 15.1119 3.50936 14.9843C3.47942 14.9307 3.4233 14.8919 3.36344 14.8549C3.36906 14.9048 3.37841 14.9529 3.39899 14.9991C3.34661 14.8771 3.20631 14.7995 3.1558 14.6793C3.18947 14.7569 3.28113 14.805 3.36531 14.8568C3.35035 14.7477 3.35596 14.6331 3.32229 14.5277C3.27365 14.3761 3.23811 14.232 3.20257 14.0767C3.16703 13.9214 3.00054 13.7957 2.97809 13.6386C2.9968 13.7735 2.89204 13.9233 2.91074 14.0582C2.88643 13.877 2.93693 13.6829 2.93132 13.4999C2.92384 13.3169 3.09968 13.1376 3.10716 12.9565C3.10903 12.9102 3.09781 12.8622 3.08097 12.8141C3.08097 12.8178 3.08097 12.8215 3.08097 12.8252C3.08097 12.8197 3.08097 12.816 3.08097 12.8104C3.03047 12.6718 2.92945 12.5276 2.94816 12.3927C2.93132 12.5221 3.08659 12.6792 3.08097 12.8104C3.08097 12.8104 3.08097 12.8123 3.08097 12.8141C3.10342 12.6256 3.02673 12.4185 3.07162 12.2337C3.11652 12.0451 3.06414 11.8215 3.124 11.6385C3.18386 11.4536 3.4813 11.3538 3.55799 11.1745C3.50561 11.2965 3.28114 11.3427 3.22876 11.4647C3.28675 11.3297 3.40834 11.2244 3.47568 11.095C3.54116 10.9637 3.73383 10.9046 3.80866 10.777C3.88349 10.6513 3.92838 10.5145 4.01069 10.3925C4.07242 10.3001 4.04436 10.1467 4.11171 10.0579C4.11171 10.0579 4.11919 10.0487 4.12854 10.0376C4.12667 10.0413 4.12293 10.0432 4.11919 10.0469C4.07429 10.1023 4.05372 10.1282 4.11171 10.0542C4.11358 10.0506 4.11732 10.0487 4.11919 10.0469C4.12854 10.0339 4.13977 10.021 4.15099 10.0062C4.2015 9.94149 4.28194 9.83797 4.28381 9.83797C4.28381 9.83797 4.21085 9.9304 4.15099 10.0062C4.14164 10.0191 4.13415 10.0284 4.12667 10.0376C4.26884 9.86755 4.46713 9.74369 4.61117 9.57363C4.71967 9.44608 4.73089 9.23165 4.84313 9.10595C4.95537 8.98025 5.04891 8.83421 5.16302 8.71036C5.27713 8.58651 5.43987 8.50332 5.55585 8.38132C5.67184 8.25931 5.74853 8.09664 5.86638 7.97649C5.98611 7.85633 6.22742 7.85818 6.34901 7.74172C6.47061 7.62342 6.54543 7.46074 6.6689 7.34613C6.79236 7.22968 6.88776 7.08549 7.0131 6.97273C7.13843 6.85997 7.22448 6.70284 7.35169 6.59008C7.47889 6.47917 7.63415 6.39783 7.76323 6.28692C7.89231 6.17786 8.14485 6.21298 8.27579 6.10576C8.40674 5.99855 8.4853 5.83218 8.61625 5.72496C8.8108 5.56784 8.95858 5.34601 9.16435 5.20367C9.15126 5.21292 8.85008 5.43474 9.04837 5.28686C9.09327 5.25358 9.06147 5.12049 9.10636 5.08722C9.19615 5.02067 9.36638 5.06134 9.45617 4.99664C9.58899 4.90051 9.79476 4.90606 9.92758 4.81178C10.0623 4.71751 10.2007 4.63432 10.3354 4.5419C10.4719 4.44947 10.5617 4.29604 10.7002 4.20731C10.8498 4.11119 10.9733 3.97809 11.1248 3.88566C11.2763 3.79324 11.3755 3.61393 11.5289 3.5252C11.6823 3.43647 11.9254 3.50301 12.0826 3.41798C12.2378 3.33295 12.3744 3.21649 12.5334 3.137C12.6924 3.05752 12.7785 2.82645 12.9393 2.75251C12.9393 2.75251 12.9599 2.73032 13.0254 2.74511C13.1788 2.67487 13.2256 2.65638 13.3303 2.54177C13.4388 2.42162 13.6315 2.35137 13.6913 2.20164C13.7493 2.05376 13.7044 1.8726 13.7175 1.71178C13.7306 1.5528 13.8073 1.37904 13.7774 1.22376C13.7456 1.06479 13.6109 0.931691 13.538 0.79305C13.45 0.62853 13.3191 0.475101 13.1545 0.354946C12.9898 0.232942 12.8196 0.0906041 12.6419 0.0425419C12.4305 -0.0147629 12.2154 0.00372255 12.019 0.0332992C11.8226 0.0628759 11.6074 0.0979982 11.4166 0.186728C11.2745 0.251427 11.1921 0.436282 11.0537 0.506526C10.9153 0.576771 10.8105 0.70432 10.6721 0.778262C10.5355 0.852204 10.3653 0.865144 10.2306 0.940934C10.0959 1.01857 9.86024 0.927994 9.72555 1.00933C9.57029 1.10176 9.55719 1.41786 9.4038 1.51398C9.2504 1.61011 9.00722 1.56574 8.85756 1.66371C8.70604 1.76169 8.62934 1.96688 8.47969 2.0667C8.33004 2.16837 8.20096 2.29222 8.05318 2.39759C7.9054 2.5011 7.6566 2.46413 7.51069 2.57135C7.36478 2.67856 7.25441 2.83014 7.11224 2.93921C6.97007 3.04827 6.73998 3.05197 6.59968 3.16288C6.45938 3.2738 6.46312 3.56217 6.32282 3.67678C6.1844 3.79139 5.98798 3.83945 5.85142 3.95591C5.71486 4.07237 5.51844 4.12228 5.38188 4.24058C5.2472 4.35889 5.13496 4.50492 5.00214 4.62693C4.86932 4.74708 4.77018 4.90606 4.63923 5.02991C4.50829 5.15376 4.32683 5.22586 4.19776 5.35156C4.06868 5.47726 4.05372 5.71572 3.92651 5.84327C3.79931 5.97082 3.54116 5.97267 3.41769 6.10206C3.29236 6.23146 3.14832 6.34422 3.02485 6.47547C2.89952 6.60857 2.8434 6.80821 2.71807 6.945C2.5946 7.07994 2.48985 7.23522 2.36825 7.37386C2.24666 7.5125 2.05773 7.59754 1.93987 7.73987C1.82202 7.88221 1.68172 8.01161 1.56948 8.15949C1.45724 8.30738 1.51149 8.57172 1.40861 8.7233C1.30572 8.87673 1.07189 8.94882 0.978356 9.1078C0.884823 9.26677 0.935331 9.50154 0.854892 9.66606C0.781937 9.81394 0.598612 9.91191 0.533139 10.0635C0.467666 10.2151 0.366651 10.3574 0.30866 10.5108C0.25067 10.6643 0.211386 10.8306 0.162749 10.9896C0.114112 11.1467 0.155266 11.3316 0.117853 11.4924C0.0785694 11.6532 0.0823107 11.8196 0.0542508 11.9823C0.026191 12.145 0.026191 12.3076 0.00748441 12.4721C-0.0112222 12.6367 0.0168377 12.7975 0.00935507 12.962C0.0037431 13.1265 -0.00186888 13.2837 0.0037431 13.4482C0.00935507 13.6312 0.00374309 13.8105 0.0224497 13.9935C0.0411562 14.1765 0.0991466 14.3466 0.132818 14.5277C0.16462 14.7089 0.202033 14.8808 0.248799 15.0583C0.295566 15.2376 0.149654 15.4723 0.209515 15.6461C0.271247 15.8199 0.376004 15.9844 0.45083 16.1526C0.527527 16.3208 0.615448 16.489 0.70711 16.6499C0.798773 16.8107 1.04196 16.8717 1.14859 17.0233C1.24773 17.1619 1.27579 17.3468 1.38429 17.4761C1.49279 17.6074 1.52085 17.8126 1.63683 17.9346C1.75468 18.0566 1.86505 18.1971 1.99225 18.3117C2.11946 18.4245 2.41315 18.3413 2.54784 18.4448C2.68252 18.5483 2.68814 18.8256 2.83031 18.9199C2.97248 19.0141 3.19134 18.9864 3.33913 19.0714C3.48691 19.1546 3.59353 19.3154 3.74693 19.3894C3.90032 19.4633 4.04998 19.5484 4.20898 19.6149C4.36612 19.6796 4.57563 19.6057 4.73838 19.6611C4.89925 19.7166 4.99466 19.9791 5.15928 20.0253C5.32389 20.0715 5.54089 19.907 5.70925 19.9421C5.87574 19.9791 6.04597 19.9698 6.21433 19.9976C6.38269 20.0253 6.53047 20.1695 6.7007 20.1898C6.86906 20.2083 7.04864 20.09 7.21887 20.1011C7.3891 20.1122 7.55372 20.1454 7.72395 20.151C7.89418 20.1565 8.06441 20.4024 8.23464 20.4005C8.40487 20.3987 8.5751 20.2656 8.74533 20.2564C8.91556 20.249 9.09327 20.3248 9.2635 20.31C9.44308 20.2952 9.62828 20.2952 9.80786 20.2767C9.85275 20.2711 9.89765 20.2619 9.94068 20.2471C9.91823 20.2268 9.89765 20.2064 9.88456 20.1824L9.87894 20.1769Z" fill="#505050"/>
<path d="M4.11545 10.0431C4.11545 10.0431 4.12106 10.0376 4.1248 10.0339C4.13228 10.0246 4.13977 10.0154 4.14912 10.0024C4.1379 10.0172 4.12667 10.0302 4.11732 10.0431H4.11545Z" fill="#505050"/>
<path d="M19.958 12.3981C19.9711 12.4314 19.9861 12.4665 20.0011 12.5035C20.0011 12.5035 20.0011 12.5035 20.0011 12.5016C19.9861 12.4591 19.9805 12.4185 19.9786 12.3796C19.9711 12.387 19.9637 12.3926 19.9562 12.4L19.958 12.3981Z" fill="#505050"/>
<path d="M19.8795 12.2614C19.8795 12.2614 19.8944 12.2724 19.9019 12.2761C19.9019 12.2761 19.9019 12.2724 19.9 12.2724C19.8926 12.2687 19.887 12.265 19.8813 12.2614H19.8795Z" fill="#505050"/>
<path d="M19.8795 12.2614C19.8645 12.2522 19.8495 12.2429 19.8365 12.2318C19.7373 12.145 19.6999 12.1634 19.8795 12.2614Z" fill="#505050"/>
<path d="M19.8926 12.5035C19.8982 12.4666 19.9244 12.4314 19.9581 12.3963C19.9581 12.3926 19.9562 12.3889 19.9543 12.3871C19.9225 12.4241 19.8982 12.4629 19.8926 12.5035Z" fill="#505050"/>
<path d="M20.0067 12.3538C20.0067 12.3538 19.9973 12.3612 19.9917 12.3668C19.9955 12.3963 19.9992 12.4278 20.0048 12.4684C19.9973 12.4111 20.0273 12.3594 20.0628 12.3076C20.0478 12.3206 20.031 12.3335 20.016 12.3446C20.031 12.3649 20.031 12.3723 20.0067 12.352V12.3538Z" fill="#505050"/>
<path d="M19.7223 12.7254C19.438 13.0008 19.6513 13.0063 19.7261 12.901C19.7317 12.8936 19.7373 12.8862 19.741 12.8788C19.7205 12.8141 19.698 12.7475 19.7223 12.7235V12.7254Z" fill="#505050"/>
<path d="M18.8001 13.7254C18.8936 13.6459 18.9385 13.5997 18.9516 13.5739C18.9049 13.6275 18.8562 13.6792 18.8001 13.7254Z" fill="#505050"/>
<path d="M15.5377 15.4705C15.5208 15.4779 15.504 15.4889 15.4872 15.4982C15.4853 15.4982 15.4834 15.5019 15.4797 15.5037C15.4984 15.4926 15.5171 15.4797 15.5377 15.4705Z" fill="#505050"/>
<path d="M20.0179 12.3464C20.0179 12.3464 20.0104 12.352 20.0085 12.3538C20.0347 12.3742 20.0329 12.3668 20.0179 12.3464Z" fill="#505050"/>
<path d="M19.9917 12.3187C19.9917 12.3187 19.988 12.315 19.9842 12.3131C19.9861 12.3131 19.988 12.315 19.9917 12.3168V12.3187Z" fill="#505050"/>
<path d="M19.9767 12.3279C19.9543 12.3075 19.9281 12.2928 19.9019 12.2761C19.9225 12.3131 19.9393 12.3501 19.9562 12.387C19.9636 12.3778 19.9711 12.3685 19.9805 12.3593C19.9805 12.3482 19.9786 12.3371 19.9786 12.326L19.9767 12.3279Z" fill="#505050"/>
<path d="M19.9786 12.3612C19.9786 12.3612 19.9618 12.3797 19.9543 12.3889C19.9543 12.3926 19.9562 12.3963 19.958 12.3982C19.9655 12.3908 19.973 12.3852 19.9805 12.3778C19.9805 12.3723 19.9805 12.3668 19.9805 12.3612H19.9786Z" fill="#505050"/>
<path d="M20.0086 12.5202C20.0086 12.5202 20.0048 12.5073 20.0029 12.4999C20.0029 12.4999 20.0029 12.4999 20.0029 12.5017C20.0048 12.5073 20.0067 12.5128 20.0104 12.5184L20.0086 12.5202Z" fill="#505050"/>
<path d="M19.9749 12.3094C19.9468 12.2965 19.9206 12.2817 19.8982 12.2706C19.8982 12.2706 19.8982 12.2743 19.9 12.2743C19.9262 12.291 19.9524 12.3076 19.9749 12.3261C19.9749 12.3205 19.9749 12.3131 19.9749 12.3076V12.3094Z" fill="#505050"/>
<path d="M19.9954 12.3427C19.9954 12.3427 19.9917 12.339 19.9898 12.3372C19.9898 12.3409 19.9898 12.3427 19.9898 12.3464L19.9936 12.3427H19.9954Z" fill="#505050"/>
<path d="M19.9786 12.3298C19.9786 12.3298 19.9842 12.3353 19.988 12.339C19.988 12.3316 19.9861 12.3224 19.9842 12.315C19.9805 12.3131 19.9767 12.3113 19.973 12.3094C19.973 12.315 19.973 12.3224 19.973 12.3279C19.973 12.3279 19.973 12.3279 19.9749 12.3279L19.9786 12.3298Z" fill="#505050"/>
<path d="M19.9917 12.3668C19.9917 12.3668 20.0011 12.3594 20.0067 12.3539C20.0029 12.352 19.9973 12.3465 19.9936 12.3428L19.9898 12.3465C19.9898 12.3465 19.9898 12.3594 19.9917 12.365V12.3668Z" fill="#505050"/>
<path d="M19.9786 12.3612C19.9786 12.3612 19.9786 12.3723 19.9786 12.3778C19.9824 12.3741 19.9861 12.3704 19.9917 12.3668C19.9917 12.3612 19.9917 12.3538 19.9898 12.3483C19.9861 12.352 19.9824 12.3575 19.9786 12.3612Z" fill="#505050"/>
</g>
<defs>
<clipPath id="clip0_28_5877">
<rect width="28" height="30" fill="white"/>
</clipPath>
</defs>
</svg>
